<svg id="svg" version="1.1" xmlns="http://www.w3.org/2000/svg" xmlns:xlink="http://www.w3.org/1999/xlink" width="80" height="80" viewBox="0, 0, 400,400"><g id="svgg"><path id="path0" d="M258.400 21.444 C 251.322 22.786,245.785 25.253,240.489 29.424 L 237.177 32.032 235.089 31.592 C 227.279 29.944,220.633 30.000,214.200 31.769 C 209.124 33.164,201.666 37.551,198.225 41.166 C 196.655 42.815,196.676 42.822,193.429 39.500 C 173.915 19.534,140.578 25.913,130.966 51.452 C 129.542 55.236,129.887 55.052,123.700 55.317 C 120.675 55.447,117.660 55.729,117.000 55.943 C 116.340 56.158,114.810 56.643,113.600 57.021 C 101.981 60.649,91.408 71.951,89.017 83.300 C 88.732 84.651,88.314 84.664,84.667 83.431 C 76.885 80.801,66.378 80.525,61.000 82.810 C 60.560 82.997,59.750 83.276,59.200 83.430 C 57.488 83.910,54.023 85.595,51.721 87.068 C 36.146 97.031,30.059 116.359,37.066 133.600 C 39.865 140.486,46.144 147.669,52.732 151.520 C 55.567 153.177,55.455 152.744,54.398 158.000 C 50.651 176.644,62.690 195.926,81.405 201.255 C 89.457 203.547,103.076 202.023,109.292 198.134 C 110.113 197.620,110.901 197.200,111.043 197.200 C 112.887 197.200,124.000 186.001,124.000 184.142 C 124.000 182.959,126.022 181.712,128.334 181.470 C 136.836 180.581,144.062 177.093,150.670 170.686 C 154.275 167.192,154.256 167.195,155.829 169.900 C 165.734 186.942,188.203 193.043,206.329 183.612 C 210.136 181.632,209.998 181.630,211.648 183.680 C 214.371 187.065,215.431 188.150,218.056 190.245 C 223.782 194.813,228.726 196.940,236.973 198.384 C 247.145 200.165,259.396 196.172,267.756 188.350 L 271.226 185.103 273.513 187.266 C 280.388 193.769,285.796 196.521,295.000 198.201 C 307.769 200.532,320.998 195.319,330.261 184.307 C 338.136 174.946,340.598 159.339,336.052 147.600 C 334.920 144.676,334.850 144.933,337.716 141.485 C 347.695 129.483,349.018 112.076,340.991 98.385 C 336.501 90.727,328.152 84.100,319.900 81.646 C 319.075 81.401,317.815 81.024,317.099 80.810 C 316.384 80.595,314.256 80.301,312.370 80.156 C 308.567 79.864,308.365 79.763,306.427 77.200 C 305.679 76.210,303.995 74.293,302.685 72.940 C 300.518 70.702,300.323 70.360,300.530 69.140 C 300.655 68.403,301.053 65.910,301.415 63.600 C 303.671 49.200,295.640 32.990,282.813 26.052 C 280.042 24.554,277.999 23.645,276.000 23.021 C 274.790 22.643,273.260 22.156,272.600 21.938 C 271.323 21.516,260.082 21.125,258.400 21.444 " stroke="none" fill="#947474" fill-rule="evenodd"></path><path id="path1" d="M150.800 171.720 C 148.228 174.201,144.383 177.200,143.772 177.200 C 143.669 177.200,142.893 177.636,142.049 178.169 C 139.952 179.493,135.326 181.024,131.000 181.826 C 129.020 182.193,127.040 182.561,126.600 182.644 C 126.127 182.733,125.064 183.963,124.000 185.653 C 111.260 205.885,82.684 209.438,65.219 192.962 C 63.619 191.453,62.384 190.573,62.166 190.786 C 61.831 191.113,59.366 192.101,57.400 192.695 C 56.960 192.828,55.109 193.896,53.286 195.068 C 51.463 196.241,49.905 197.200,49.823 197.200 C 48.689 197.200,39.200 208.972,39.200 210.379 C 39.200 210.611,38.990 210.800,38.733 210.800 C 38.477 210.800,38.370 210.904,38.497 211.031 C 38.624 211.157,38.398 212.012,37.994 212.931 C 35.235 219.205,34.480 230.029,36.328 236.800 C 37.311 240.400,39.125 245.265,39.610 245.600 C 39.769 245.710,40.261 246.478,40.703 247.306 C 41.842 249.443,43.764 251.815,46.678 254.680 C 48.065 256.044,49.200 257.360,49.200 257.604 C 49.200 257.848,49.378 257.937,49.595 257.803 C 49.812 257.669,50.397 257.944,50.895 258.414 C 51.393 258.885,52.520 259.638,53.400 260.089 C 54.280 260.539,55.090 261.028,55.200 261.176 C 55.547 261.640,62.193 263.999,64.546 264.492 C 65.786 264.752,66.801 265.063,66.801 265.183 C 66.802 265.302,69.007 265.461,71.701 265.535 C 77.628 265.699,76.881 264.882,78.348 272.802 C 79.387 278.410,80.579 283.012,83.376 292.200 C 83.897 293.912,84.046 294.290,86.292 299.566 C 88.721 305.272,92.488 312.619,94.888 316.335 C 95.266 316.921,95.862 317.908,96.213 318.528 C 96.778 319.529,100.667 325.160,101.511 326.200 C 101.690 326.420,102.278 327.213,102.818 327.962 C 103.358 328.711,104.160 329.711,104.600 330.184 C 105.040 330.658,106.210 332.022,107.200 333.217 C 108.855 335.215,120.400 346.864,120.400 346.537 C 120.400 346.406,121.984 347.725,123.598 349.200 C 123.960 349.530,124.873 350.242,125.628 350.782 C 126.382 351.322,127.180 351.910,127.400 352.089 C 128.507 352.988,134.106 356.842,135.224 357.475 C 135.928 357.874,136.883 358.418,137.345 358.683 C 137.808 358.949,138.398 359.456,138.657 359.810 C 138.915 360.164,139.279 360.468,139.464 360.485 C 139.649 360.503,143.040 362.099,147.000 364.033 C 155.296 368.085,158.064 369.174,168.200 372.377 C 170.197 373.009,177.724 374.864,178.922 375.021 C 179.539 375.102,181.069 375.361,182.322 375.598 C 186.370 376.362,193.728 377.194,196.476 377.197 C 197.948 377.199,199.264 377.380,199.400 377.600 C 199.707 378.097,208.094 378.137,208.620 377.644 C 208.829 377.448,210.980 377.190,213.400 377.071 C 217.467 376.870,224.117 376.007,227.702 375.216 C 228.640 375.009,229.298 375.035,229.452 375.285 C 229.616 375.550,229.786 375.547,229.954 375.274 C 230.094 375.048,232.097 374.389,234.404 373.810 C 245.956 370.911,265.456 362.951,269.584 359.449 C 269.923 359.162,271.286 358.279,272.613 357.487 C 275.883 355.536,281.021 351.769,286.369 347.400 C 292.496 342.394,302.763 331.439,307.113 325.264 C 309.245 322.238,312.400 317.552,312.400 317.412 C 312.400 317.340,313.154 316.048,314.076 314.541 C 321.024 303.183,327.477 285.715,329.794 272.000 C 330.757 266.292,330.290 266.800,334.583 266.800 C 340.174 266.800,351.725 264.010,352.800 262.400 C 352.910 262.235,353.678 261.739,354.506 261.297 C 357.066 259.933,364.800 253.087,364.800 252.186 C 364.800 252.065,365.159 251.581,365.598 251.110 C 366.036 250.640,366.776 249.522,367.241 248.627 C 367.707 247.732,368.229 246.910,368.402 246.800 C 368.850 246.515,372.000 237.123,372.000 236.073 C 372.000 235.593,372.139 235.200,372.308 235.200 C 372.921 235.200,372.554 223.519,371.850 220.600 C 371.138 217.647,368.831 211.140,368.376 210.800 C 368.228 210.690,367.739 209.880,367.289 209.000 C 366.838 208.120,366.094 207.003,365.635 206.517 C 365.176 206.031,364.800 205.523,364.800 205.388 C 364.800 204.441,356.958 197.518,354.400 196.206 C 353.630 195.811,352.910 195.369,352.800 195.223 C 350.532 192.218,335.443 189.936,327.634 191.417 C 325.844 191.757,324.217 191.934,324.017 191.811 C 323.818 191.688,323.538 191.777,323.394 192.010 C 323.250 192.242,322.473 192.847,321.666 193.353 C 306.101 203.121,287.488 201.208,273.476 188.401 L 271.153 186.277 269.276 188.067 C 268.244 189.052,266.500 190.576,265.400 191.453 C 263.568 192.915,262.549 193.573,258.950 195.620 C 245.473 203.282,222.847 198.819,212.965 186.551 C 212.104 185.482,211.033 184.198,210.584 183.698 L 209.767 182.789 205.784 184.798 C 190.916 192.295,173.231 189.653,161.374 178.163 C 159.069 175.929,155.298 171.111,154.772 169.727 C 154.276 168.423,154.150 168.486,150.800 171.720 " stroke="none" fill="#fbe3bc" fill-rule="evenodd"></path><path id="path2" d="M256.400 20.400 C 256.400 20.620,257.120 20.800,258.000 20.800 C 258.880 20.800,259.600 20.620,259.600 20.400 C 259.600 20.180,258.880 20.000,258.000 20.000 C 257.120 20.000,256.400 20.180,256.400 20.400 M268.400 20.400 C 268.400 20.620,269.120 20.800,270.000 20.800 C 270.880 20.800,271.600 20.620,271.600 20.400 C 271.600 20.180,270.880 20.000,270.000 20.000 C 269.120 20.000,268.400 20.180,268.400 20.400 M254.000 21.200 C 254.000 21.706,254.817 21.706,255.600 21.200 C 256.068 20.898,255.957 20.811,255.100 20.806 C 254.495 20.803,254.000 20.980,254.000 21.200 M272.600 21.200 C 272.736 21.420,273.107 21.600,273.424 21.600 C 273.741 21.600,274.000 21.420,274.000 21.200 C 274.000 20.980,273.629 20.800,273.176 20.800 C 272.723 20.800,272.464 20.980,272.600 21.200 M252.000 21.600 C 252.000 21.820,252.270 22.000,252.600 22.000 C 252.930 22.000,253.200 21.820,253.200 21.600 C 253.200 21.380,252.930 21.200,252.600 21.200 C 252.270 21.200,252.000 21.380,252.000 21.600 M274.800 21.600 C 274.800 21.820,275.070 22.000,275.400 22.000 C 275.730 22.000,276.000 21.820,276.000 21.600 C 276.000 21.380,275.730 21.200,275.400 21.200 C 275.070 21.200,274.800 21.380,274.800 21.600 M250.000 22.400 C 250.000 22.620,250.270 22.800,250.600 22.800 C 250.930 22.800,251.200 22.620,251.200 22.400 C 251.200 22.180,250.930 22.000,250.600 22.000 C 250.270 22.000,250.000 22.180,250.000 22.400 M248.000 22.800 C 248.000 23.020,247.730 23.200,247.400 23.200 C 247.070 23.200,246.800 23.380,246.800 23.600 C 246.800 24.103,247.270 24.106,248.574 23.610 C 249.793 23.146,249.932 22.400,248.800 22.400 C 248.360 22.400,248.000 22.580,248.000 22.800 M278.800 23.000 C 279.074 23.330,279.456 23.600,279.649 23.600 C 279.842 23.600,280.000 23.330,280.000 23.000 C 280.000 22.655,279.639 22.400,279.151 22.400 C 278.442 22.400,278.384 22.499,278.800 23.000 M281.600 24.400 C 281.600 24.620,281.870 24.800,282.200 24.800 C 282.530 24.800,282.800 24.620,282.800 24.400 C 282.800 24.180,282.530 24.000,282.200 24.000 C 281.870 24.000,281.600 24.180,281.600 24.400 M284.000 25.456 C 284.000 25.766,285.281 26.770,285.700 26.787 C 285.865 26.794,286.000 26.620,286.000 26.400 C 286.000 26.180,285.730 26.000,285.400 26.000 C 285.070 26.000,284.800 25.820,284.800 25.600 C 284.800 25.380,284.620 25.200,284.400 25.200 C 284.180 25.200,284.000 25.315,284.000 25.456 M241.800 26.400 C 241.664 26.620,241.823 26.800,242.153 26.800 C 242.483 26.800,242.864 26.620,243.000 26.400 C 243.136 26.180,242.977 26.000,242.647 26.000 C 242.317 26.000,241.936 26.180,241.800 26.400 M158.506 26.900 C 158.701 27.462,161.165 27.362,161.780 26.767 C 162.013 26.542,161.418 26.400,160.247 26.400 C 158.890 26.400,158.384 26.546,158.506 26.900 M170.220 26.767 C 170.835 27.362,173.299 27.462,173.494 26.900 C 173.616 26.546,173.110 26.400,171.753 26.400 C 170.582 26.400,169.987 26.542,170.220 26.767 M156.000 27.600 C 156.000 27.820,156.450 28.000,157.000 28.000 C 157.550 28.000,158.000 27.820,158.000 27.600 C 158.000 27.380,157.550 27.200,157.000 27.200 C 156.450 27.200,156.000 27.380,156.000 27.600 M174.400 27.600 C 174.400 27.820,174.760 28.000,175.200 28.000 C 175.640 28.000,176.000 27.820,176.000 27.600 C 176.000 27.380,175.640 27.200,175.200 27.200 C 174.760 27.200,174.400 27.380,174.400 27.600 M240.122 27.774 C 239.860 28.074,239.410 28.402,239.122 28.504 C 238.835 28.607,238.729 28.830,238.888 28.999 C 239.226 29.363,241.200 28.161,241.200 27.591 C 241.200 27.043,240.688 27.130,240.122 27.774 M286.813 27.500 C 286.831 27.931,288.815 29.319,289.061 29.073 C 289.174 28.959,288.892 28.492,288.433 28.033 C 287.601 27.201,286.789 26.934,286.813 27.500 M152.000 28.800 C 152.000 29.020,152.270 29.200,152.600 29.200 C 152.930 29.200,153.200 29.020,153.200 28.800 C 153.200 28.580,152.930 28.400,152.600 28.400 C 152.270 28.400,152.000 28.580,152.000 28.800 M178.800 28.800 C 178.800 29.020,179.070 29.200,179.400 29.200 C 179.730 29.200,180.000 29.020,180.000 28.800 C 180.000 28.580,179.730 28.400,179.400 28.400 C 179.070 28.400,178.800 28.580,178.800 28.800 M149.500 29.476 C 149.115 29.576,148.800 29.845,148.800 30.073 C 148.800 30.544,150.779 30.159,151.380 29.572 C 151.776 29.185,150.804 29.135,149.500 29.476 M180.620 29.548 C 181.193 30.073,183.200 30.467,183.200 30.054 C 183.200 29.688,181.876 29.215,180.820 29.205 C 180.467 29.202,180.388 29.336,180.620 29.548 M217.200 29.600 C 217.200 29.820,217.819 30.000,218.576 30.000 C 219.333 30.000,220.064 29.820,220.200 29.600 C 220.349 29.358,219.804 29.200,218.824 29.200 C 217.931 29.200,217.200 29.380,217.200 29.600 M229.400 29.600 C 229.536 29.820,230.267 30.000,231.024 30.000 C 231.781 30.000,232.400 29.820,232.400 29.600 C 232.400 29.380,231.669 29.200,230.776 29.200 C 229.796 29.200,229.251 29.358,229.400 29.600 M214.800 30.243 C 214.800 30.665,215.018 30.802,215.433 30.643 C 215.781 30.509,216.231 30.400,216.433 30.400 C 216.635 30.400,216.800 30.220,216.800 30.000 C 216.800 29.780,216.350 29.600,215.800 29.600 C 215.148 29.600,214.800 29.824,214.800 30.243 M233.376 30.213 C 234.366 30.961,234.800 30.957,234.800 30.200 C 234.800 29.809,234.417 29.604,233.700 29.613 C 232.646 29.625,232.633 29.650,233.376 30.213 M183.600 30.753 C 183.600 30.948,183.947 31.197,184.370 31.308 C 184.910 31.449,185.077 31.344,184.927 30.955 C 184.695 30.349,183.600 30.183,183.600 30.753 M212.800 30.800 C 212.800 31.020,213.070 31.200,213.400 31.200 C 213.730 31.200,214.000 31.020,214.000 30.800 C 214.000 30.580,213.730 30.400,213.400 30.400 C 213.070 30.400,212.800 30.580,212.800 30.800 M235.600 30.800 C 235.600 31.020,236.050 31.200,236.600 31.200 C 237.150 31.200,237.600 31.020,237.600 30.800 C 237.600 30.580,237.150 30.400,236.600 30.400 C 236.050 30.400,235.600 30.580,235.600 30.800 M186.308 32.400 C 187.234 33.262,188.000 33.444,188.000 32.800 C 188.000 32.580,187.730 32.400,187.400 32.400 C 187.070 32.400,186.800 32.220,186.800 32.000 C 186.800 31.780,186.496 31.600,186.125 31.600 C 185.552 31.600,185.580 31.722,186.308 32.400 M208.800 31.933 C 208.800 32.497,209.251 32.755,209.839 32.530 C 210.674 32.209,210.517 31.600,209.600 31.600 C 209.160 31.600,208.800 31.750,208.800 31.933 M143.873 32.955 C 143.723 33.344,143.890 33.449,144.430 33.308 C 145.316 33.076,145.474 32.400,144.643 32.400 C 144.336 32.400,143.990 32.650,143.873 32.955 M207.600 32.800 C 207.600 33.020,207.870 33.200,208.200 33.200 C 208.530 33.200,208.800 33.020,208.800 32.800 C 208.800 32.580,208.530 32.400,208.200 32.400 C 207.870 32.400,207.600 32.580,207.600 32.800 M206.100 33.465 C 205.281 33.795,205.533 34.343,206.400 34.116 C 206.840 34.001,207.200 33.748,207.200 33.553 C 207.200 33.172,206.888 33.147,206.100 33.465 M142.000 33.984 C 142.000 34.196,141.595 34.765,141.100 35.249 L 140.200 36.130 141.568 35.361 C 143.071 34.517,143.626 33.600,142.633 33.600 C 142.285 33.600,142.000 33.773,142.000 33.984 M188.800 33.977 C 188.800 34.392,190.376 35.600,190.918 35.600 C 191.104 35.600,190.974 35.317,190.629 34.971 C 190.283 34.626,190.000 34.176,190.000 33.971 C 190.000 33.767,189.730 33.600,189.400 33.600 C 189.070 33.600,188.800 33.770,188.800 33.977 M293.613 33.900 C 293.631 34.289,295.057 36.000,295.364 36.000 C 295.820 36.000,295.592 35.313,294.853 34.461 C 294.094 33.586,293.589 33.357,293.613 33.900 M202.584 35.627 C 202.148 36.332,202.607 36.430,203.429 35.809 C 204.106 35.297,204.117 35.224,203.524 35.213 C 203.152 35.206,202.729 35.392,202.584 35.627 M200.218 37.418 C 199.658 37.978,199.200 38.535,199.200 38.655 C 199.200 39.052,201.732 37.403,201.901 36.896 C 202.178 36.067,201.296 36.340,200.218 37.418 M296.292 37.230 C 296.524 38.116,297.200 38.274,297.200 37.443 C 297.200 37.136,296.950 36.790,296.645 36.673 C 296.256 36.523,296.151 36.690,296.292 37.230 M135.054 41.245 C 134.639 41.730,134.480 42.240,134.681 42.441 C 134.882 42.642,135.334 42.282,135.739 41.596 C 136.552 40.219,136.122 39.998,135.054 41.245 M298.800 41.976 C 298.800 42.183,298.980 42.464,299.200 42.600 C 299.420 42.736,299.600 43.197,299.600 43.624 C 299.600 44.051,299.780 44.400,300.000 44.400 C 300.220 44.400,300.400 44.040,300.400 43.600 C 300.400 43.160,300.220 42.800,300.000 42.800 C 299.780 42.800,299.600 42.530,299.600 42.200 C 299.600 41.870,299.420 41.600,299.200 41.600 C 298.980 41.600,298.800 41.769,298.800 41.976 M131.200 47.400 C 131.200 47.730,131.064 48.000,130.898 48.000 C 130.497 48.000,129.451 50.385,129.730 50.663 C 130.125 51.058,130.859 50.330,130.640 49.760 C 130.522 49.452,130.578 49.200,130.766 49.200 C 130.953 49.200,131.218 48.885,131.354 48.500 C 131.489 48.115,131.705 47.575,131.834 47.300 C 131.962 47.025,131.872 46.800,131.633 46.800 C 131.395 46.800,131.200 47.070,131.200 47.400 M300.800 47.400 C 300.800 47.730,300.980 48.000,301.200 48.000 C 301.420 48.000,301.600 47.730,301.600 47.400 C 301.600 47.070,301.420 46.800,301.200 46.800 C 300.980 46.800,300.800 47.070,300.800 47.400 M301.510 49.023 C 301.188 49.345,301.628 50.800,302.047 50.800 C 302.241 50.800,302.400 50.350,302.400 49.800 C 302.400 48.859,302.013 48.521,301.510 49.023 M302.006 52.300 C 302.009 52.905,302.187 53.670,302.400 54.000 C 302.684 54.439,302.789 54.145,302.794 52.900 C 302.797 51.965,302.620 51.200,302.400 51.200 C 302.180 51.200,302.003 51.695,302.006 52.300 M118.000 54.400 C 118.000 54.620,118.720 54.800,119.600 54.800 C 120.480 54.800,121.200 54.620,121.200 54.400 C 121.200 54.180,120.480 54.000,119.600 54.000 C 118.720 54.000,118.000 54.180,118.000 54.400 M115.600 55.200 C 115.600 55.701,116.024 55.701,116.800 55.200 C 117.285 54.886,117.228 54.811,116.500 54.806 C 116.005 54.803,115.600 54.980,115.600 55.200 M113.600 55.600 C 113.600 55.820,113.870 56.000,114.200 56.000 C 114.530 56.000,114.800 55.820,114.800 55.600 C 114.800 55.380,114.530 55.200,114.200 55.200 C 113.870 55.200,113.600 55.380,113.600 55.600 M109.600 57.033 C 109.600 57.382,109.814 57.595,110.075 57.508 C 110.817 57.261,110.940 56.400,110.233 56.400 C 109.885 56.400,109.600 56.685,109.600 57.033 M106.800 58.400 C 106.800 58.620,107.070 58.800,107.400 58.800 C 107.730 58.800,108.000 58.620,108.000 58.400 C 108.000 58.180,107.730 58.000,107.400 58.000 C 107.070 58.000,106.800 58.180,106.800 58.400 M104.800 59.557 C 104.800 59.753,104.350 60.026,103.800 60.164 C 103.250 60.302,102.800 60.592,102.800 60.808 C 102.800 61.023,102.620 61.200,102.400 61.200 C 101.994 61.200,100.400 62.634,100.400 63.000 C 100.400 63.483,101.136 63.117,102.224 62.093 C 102.871 61.484,103.895 60.734,104.500 60.425 C 105.589 59.870,105.972 59.200,105.200 59.200 C 104.980 59.200,104.800 59.360,104.800 59.557 M302.239 64.519 C 302.055 65.354,302.016 66.149,302.152 66.285 C 302.629 66.762,302.852 66.068,302.713 64.540 L 302.573 63.000 302.239 64.519 M301.690 67.476 C 301.347 68.086,301.328 68.432,301.626 68.616 C 302.238 68.994,302.486 68.610,302.324 67.534 L 302.182 66.600 301.690 67.476 M94.900 68.174 C 93.954 69.160,93.724 70.000,94.400 70.000 C 94.620 70.000,94.800 69.833,94.800 69.629 C 94.800 69.424,95.084 68.973,95.432 68.625 C 95.780 68.277,96.005 67.822,95.932 67.614 C 95.859 67.406,95.395 67.658,94.900 68.174 M92.900 70.665 C 92.334 70.893,92.212 72.000,92.753 72.000 C 92.948 72.000,93.201 71.640,93.316 71.200 C 93.431 70.760,93.497 70.414,93.463 70.432 C 93.428 70.449,93.175 70.554,92.900 70.665 M305.919 75.197 C 306.515 76.246,307.600 76.858,307.600 76.146 C 307.600 75.878,305.673 74.000,305.398 74.000 C 305.310 74.000,305.544 74.539,305.919 75.197 M90.000 76.200 C 90.000 76.530,89.820 76.800,89.600 76.800 C 89.380 76.800,89.200 77.160,89.200 77.600 C 89.200 78.040,89.380 78.400,89.600 78.400 C 89.820 78.400,90.000 78.051,90.000 77.624 C 90.000 77.197,90.180 76.736,90.400 76.600 C 90.620 76.464,90.800 76.183,90.800 75.976 C 90.800 75.769,90.620 75.600,90.400 75.600 C 90.180 75.600,90.000 75.870,90.000 76.200 M308.000 78.013 C 308.000 78.528,309.140 78.994,309.506 78.628 C 309.655 78.479,309.512 78.189,309.188 77.984 C 308.414 77.495,308.000 77.505,308.000 78.013 M312.800 79.200 C 312.800 79.420,313.520 79.600,314.400 79.600 C 315.280 79.600,316.000 79.420,316.000 79.200 C 316.000 78.980,315.280 78.800,314.400 78.800 C 313.520 78.800,312.800 78.980,312.800 79.200 M317.000 80.000 C 317.136 80.220,317.496 80.400,317.800 80.400 C 318.104 80.400,318.464 80.220,318.600 80.000 C 318.741 79.772,318.396 79.600,317.800 79.600 C 317.204 79.600,316.859 79.772,317.000 80.000 M64.500 80.500 C 64.592 80.775,64.877 80.982,65.133 80.960 C 65.390 80.938,66.050 80.893,66.600 80.860 C 68.274 80.760,67.714 80.000,65.967 80.000 C 64.838 80.000,64.385 80.154,64.500 80.500 M76.220 80.367 C 76.835 80.962,79.299 81.062,79.494 80.500 C 79.616 80.146,79.110 80.000,77.753 80.000 C 76.582 80.000,75.987 80.142,76.220 80.367 M319.200 80.400 C 319.200 80.620,319.470 80.800,319.800 80.800 C 320.130 80.800,320.400 80.620,320.400 80.400 C 320.400 80.180,320.130 80.000,319.800 80.000 C 319.470 80.000,319.200 80.180,319.200 80.400 M62.000 81.200 C 62.000 81.420,62.360 81.600,62.800 81.600 C 63.240 81.600,63.600 81.420,63.600 81.200 C 63.600 80.980,63.240 80.800,62.800 80.800 C 62.360 80.800,62.000 80.980,62.000 81.200 M80.000 81.200 C 80.000 81.420,80.450 81.600,81.000 81.600 C 81.550 81.600,82.000 81.420,82.000 81.200 C 82.000 80.980,81.550 80.800,81.000 80.800 C 80.450 80.800,80.000 80.980,80.000 81.200 M88.000 81.400 C 88.000 81.730,88.180 82.000,88.400 82.000 C 88.620 82.000,88.800 81.730,88.800 81.400 C 88.800 81.070,88.620 80.800,88.400 80.800 C 88.180 80.800,88.000 81.070,88.000 81.400 M321.200 81.200 C 321.200 81.420,321.470 81.600,321.800 81.600 C 322.130 81.600,322.400 81.420,322.400 81.200 C 322.400 80.980,322.130 80.800,321.800 80.800 C 321.470 80.800,321.200 80.980,321.200 81.200 M58.000 82.400 C 58.000 82.620,58.270 82.800,58.600 82.800 C 58.930 82.800,59.200 82.620,59.200 82.400 C 59.200 82.180,58.930 82.000,58.600 82.000 C 58.270 82.000,58.000 82.180,58.000 82.400 M84.800 82.400 C 84.800 82.620,85.070 82.800,85.400 82.800 C 85.730 82.800,86.000 82.620,86.000 82.400 C 86.000 82.180,85.730 82.000,85.400 82.000 C 85.070 82.000,84.800 82.180,84.800 82.400 M324.800 82.400 C 324.800 82.620,325.055 82.800,325.367 82.800 C 325.678 82.800,326.000 83.001,326.082 83.246 C 326.164 83.491,326.584 83.600,327.015 83.488 C 327.751 83.297,327.744 83.267,326.900 82.996 C 326.405 82.837,326.000 82.548,326.000 82.353 C 326.000 82.159,325.730 82.000,325.400 82.000 C 325.070 82.000,324.800 82.180,324.800 82.400 M56.000 83.200 C 56.000 83.420,56.270 83.600,56.600 83.600 C 56.930 83.600,57.200 83.420,57.200 83.200 C 57.200 82.980,56.930 82.800,56.600 82.800 C 56.270 82.800,56.000 82.980,56.000 83.200 M86.400 83.200 C 86.400 83.420,86.760 83.600,87.200 83.600 C 87.640 83.600,88.000 83.420,88.000 83.200 C 88.000 82.980,87.640 82.800,87.200 82.800 C 86.760 82.800,86.400 82.980,86.400 83.200 M53.073 84.555 C 52.923 84.944,53.090 85.049,53.630 84.908 C 54.516 84.676,54.674 84.000,53.843 84.000 C 53.536 84.000,53.190 84.250,53.073 84.555 M329.600 85.200 C 329.600 85.420,330.005 85.597,330.500 85.594 C 331.228 85.589,331.285 85.514,330.800 85.200 C 330.024 84.699,329.600 84.699,329.600 85.200 M51.200 85.600 C 51.200 85.820,50.930 86.000,50.600 86.000 C 50.270 86.000,50.000 86.180,50.000 86.400 C 50.000 86.982,50.768 86.890,51.429 86.229 C 52.099 85.558,52.158 85.200,51.600 85.200 C 51.380 85.200,51.200 85.380,51.200 85.600 M331.213 86.300 C 331.232 86.769,333.226 88.108,333.498 87.835 C 333.632 87.701,333.357 87.233,332.888 86.796 C 332.026 85.993,331.189 85.746,331.213 86.300 M48.719 87.072 C 48.344 87.171,47.930 87.591,47.798 88.005 C 47.667 88.420,47.208 88.870,46.780 89.006 C 46.351 89.143,46.000 89.416,46.000 89.613 C 46.000 90.172,48.771 88.402,49.224 87.554 C 49.446 87.139,49.577 86.821,49.514 86.846 C 49.451 86.872,49.093 86.973,48.719 87.072 M338.000 92.500 C 338.000 92.885,338.168 93.200,338.373 93.200 C 338.578 93.200,338.860 93.560,339.000 94.000 C 339.140 94.440,339.422 94.800,339.627 94.800 C 340.258 94.800,340.045 94.177,339.000 92.962 C 338.224 92.060,338.001 91.956,338.000 92.500 M41.496 94.216 C 40.403 95.230,40.023 96.192,40.821 95.926 C 41.218 95.794,43.040 93.200,42.735 93.200 C 42.656 93.200,42.099 93.657,41.496 94.216 M340.692 96.030 C 340.924 96.916,341.600 97.074,341.600 96.243 C 341.600 95.936,341.350 95.590,341.045 95.473 C 340.656 95.323,340.551 95.490,340.692 96.030 M343.018 100.100 C 343.168 100.595,343.450 101.171,343.645 101.380 C 343.840 101.589,344.000 102.084,344.000 102.480 C 344.000 102.876,344.180 103.200,344.400 103.200 C 344.620 103.200,344.800 102.840,344.800 102.400 C 344.800 101.960,344.634 101.600,344.432 101.600 C 344.229 101.600,343.945 101.060,343.800 100.400 C 343.655 99.740,343.359 99.200,343.141 99.200 C 342.918 99.200,342.864 99.591,343.018 100.100 M37.316 100.181 C 37.050 100.484,36.716 101.197,36.573 101.766 C 36.430 102.335,36.153 102.800,35.957 102.800 C 35.760 102.800,35.600 103.160,35.600 103.600 C 35.600 104.040,35.780 104.400,36.000 104.400 C 36.220 104.400,36.400 104.040,36.400 103.600 C 36.400 103.160,36.559 102.800,36.753 102.800 C 37.048 102.800,37.310 102.275,37.752 100.800 C 37.785 100.690,37.955 100.375,38.130 100.100 C 38.557 99.427,37.923 99.490,37.316 100.181 M344.800 104.200 C 344.800 104.530,344.980 104.800,345.200 104.800 C 345.420 104.800,345.600 104.530,345.600 104.200 C 345.600 103.870,345.420 103.600,345.200 103.600 C 344.980 103.600,344.800 103.870,344.800 104.200 M345.200 106.200 C 345.200 106.530,345.380 106.800,345.600 106.800 C 345.820 106.800,346.000 106.530,346.000 106.200 C 346.000 105.870,345.820 105.600,345.600 105.600 C 345.380 105.600,345.200 105.870,345.200 106.200 M34.400 107.400 C 34.400 107.730,34.580 108.000,34.800 108.000 C 35.020 108.000,35.200 107.730,35.200 107.400 C 35.200 107.070,35.020 106.800,34.800 106.800 C 34.580 106.800,34.400 107.070,34.400 107.400 M345.910 107.823 C 345.588 108.145,346.028 109.600,346.447 109.600 C 346.641 109.600,346.800 109.150,346.800 108.600 C 346.800 107.659,346.413 107.321,345.910 107.823 M33.600 109.800 C 33.600 110.350,33.780 110.800,34.000 110.800 C 34.220 110.800,34.400 110.350,34.400 109.800 C 34.400 109.250,34.220 108.800,34.000 108.800 C 33.780 108.800,33.600 109.250,33.600 109.800 M346.550 110.587 C 346.426 110.910,346.507 111.675,346.731 112.287 C 347.119 113.352,347.138 113.327,347.168 111.700 C 347.201 109.970,346.956 109.529,346.550 110.587 M33.228 113.300 C 33.250 114.617,33.334 114.820,33.600 114.200 C 34.079 113.084,34.079 111.600,33.600 111.600 C 33.380 111.600,33.213 112.365,33.228 113.300 M346.645 123.275 C 346.505 123.976,346.572 124.732,346.795 124.955 C 347.068 125.228,347.200 124.814,347.200 123.680 C 347.200 121.677,346.995 121.527,346.645 123.275 M33.228 124.700 C 33.213 125.635,33.380 126.400,33.600 126.400 C 34.079 126.400,34.079 124.916,33.600 123.800 C 33.334 123.180,33.250 123.383,33.228 124.700 M346.000 126.800 C 346.000 127.240,346.180 127.600,346.400 127.600 C 346.620 127.600,346.800 127.240,346.800 126.800 C 346.800 126.360,346.620 126.000,346.400 126.000 C 346.180 126.000,346.000 126.360,346.000 126.800 M33.600 128.200 C 33.600 128.750,33.780 129.200,34.000 129.200 C 34.220 129.200,34.400 128.750,34.400 128.200 C 34.400 127.650,34.220 127.200,34.000 127.200 C 33.780 127.200,33.600 127.650,33.600 128.200 M34.400 130.600 C 34.400 130.930,34.580 131.200,34.800 131.200 C 35.020 131.200,35.200 130.930,35.200 130.600 C 35.200 130.270,35.020 130.000,34.800 130.000 C 34.580 130.000,34.400 130.270,34.400 130.600 M344.800 131.000 C 344.800 131.330,344.980 131.600,345.200 131.600 C 345.420 131.600,345.600 131.330,345.600 131.000 C 345.600 130.670,345.420 130.400,345.200 130.400 C 344.980 130.400,344.800 130.670,344.800 131.000 M344.000 133.000 C 344.000 133.330,344.180 133.600,344.400 133.600 C 344.620 133.600,344.800 133.330,344.800 133.000 C 344.800 132.670,344.620 132.400,344.400 132.400 C 344.180 132.400,344.000 132.670,344.000 133.000 M35.600 134.200 C 35.600 134.530,35.780 134.800,36.000 134.800 C 36.220 134.800,36.400 134.530,36.400 134.200 C 36.400 133.870,36.220 133.600,36.000 133.600 C 35.780 133.600,35.600 133.870,35.600 134.200 M36.589 136.299 C 36.920 137.619,37.031 137.752,37.536 137.440 C 37.782 137.288,37.755 136.833,37.462 136.203 C 36.841 134.863,36.245 134.928,36.589 136.299 M342.692 135.970 C 342.551 136.510,342.656 136.677,343.045 136.527 C 343.350 136.410,343.600 136.064,343.600 135.757 C 343.600 134.926,342.924 135.084,342.692 135.970 M341.380 138.140 C 340.639 138.951,340.384 139.981,340.981 139.752 C 341.278 139.638,341.622 139.160,341.745 138.690 C 342.015 137.657,341.934 137.535,341.380 138.140 M338.863 141.414 C 338.356 141.997,338.032 142.566,338.144 142.677 C 338.472 143.005,340.101 141.304,339.936 140.807 C 339.851 140.554,339.377 140.822,338.863 141.414 M40.385 142.084 C 40.834 143.354,42.400 145.065,42.400 144.285 C 42.400 144.002,41.860 143.147,41.201 142.385 C 40.066 141.075,40.022 141.058,40.385 142.084 M336.000 145.176 C 336.000 145.603,336.180 146.064,336.400 146.200 C 336.627 146.340,336.800 146.004,336.800 145.424 C 336.800 144.861,336.620 144.400,336.400 144.400 C 336.180 144.400,336.000 144.749,336.000 145.176 M336.800 147.400 C 336.800 147.730,336.980 148.000,337.200 148.000 C 337.420 148.000,337.600 147.730,337.600 147.400 C 337.600 147.070,337.420 146.800,337.200 146.800 C 336.980 146.800,336.800 147.070,336.800 147.400 M46.900 148.988 C 47.505 149.563,48.000 150.184,48.000 150.370 C 48.000 150.555,48.357 150.800,48.793 150.914 C 50.081 151.251,49.087 149.845,47.310 148.818 L 45.800 147.944 46.900 148.988 M337.600 149.400 C 337.600 149.730,337.780 150.000,338.000 150.000 C 338.220 150.000,338.400 149.730,338.400 149.400 C 338.400 149.070,338.220 148.800,338.000 148.800 C 337.780 148.800,337.600 149.070,337.600 149.400 M338.000 151.600 C 338.000 152.040,338.180 152.400,338.400 152.400 C 338.620 152.400,338.800 152.040,338.800 151.600 C 338.800 151.160,338.620 150.800,338.400 150.800 C 338.180 150.800,338.000 151.160,338.000 151.600 M50.000 151.600 C 50.000 151.820,50.255 152.000,50.567 152.000 C 50.878 152.000,51.214 152.225,51.312 152.500 C 51.410 152.775,51.627 152.874,51.793 152.719 C 52.141 152.395,51.068 151.200,50.429 151.200 C 50.193 151.200,50.000 151.380,50.000 151.600 M53.073 153.445 C 53.314 154.075,53.846 154.172,54.172 153.645 C 54.292 153.450,54.046 153.201,53.625 153.091 C 53.089 152.951,52.924 153.057,53.073 153.445 M338.800 154.800 C 338.800 155.680,338.980 156.400,339.200 156.400 C 339.420 156.400,339.600 155.680,339.600 154.800 C 339.600 153.920,339.420 153.200,339.200 153.200 C 338.980 153.200,338.800 153.920,338.800 154.800 M53.213 155.900 C 53.225 156.954,53.250 156.967,53.813 156.224 C 54.561 155.234,54.557 154.800,53.800 154.800 C 53.409 154.800,53.204 155.183,53.213 155.900 M52.828 158.900 C 52.850 160.217,52.934 160.420,53.200 159.800 C 53.679 158.684,53.679 157.200,53.200 157.200 C 52.980 157.200,52.813 157.965,52.828 158.900 M338.800 166.800 C 338.800 167.680,338.980 168.400,339.200 168.400 C 339.420 168.400,339.600 167.680,339.600 166.800 C 339.600 165.920,339.420 165.200,339.200 165.200 C 338.980 165.200,338.800 165.920,338.800 166.800 M52.806 170.724 C 52.802 171.772,52.957 172.350,53.200 172.200 C 53.707 171.886,53.707 170.385,53.200 169.600 C 52.916 169.161,52.811 169.463,52.806 170.724 M338.000 170.000 C 338.000 170.440,338.180 170.800,338.400 170.800 C 338.620 170.800,338.800 170.440,338.800 170.000 C 338.800 169.560,338.620 169.200,338.400 169.200 C 338.180 169.200,338.000 169.560,338.000 170.000 M337.600 172.200 C 337.600 172.530,337.780 172.800,338.000 172.800 C 338.220 172.800,338.400 172.530,338.400 172.200 C 338.400 171.870,338.220 171.600,338.000 171.600 C 337.780 171.600,337.600 171.870,337.600 172.200 M53.200 173.833 C 53.200 174.402,53.394 174.802,53.630 174.723 C 53.867 174.644,54.047 174.450,54.030 174.290 C 54.014 174.131,54.000 173.730,54.000 173.400 C 54.000 173.070,53.820 172.800,53.600 172.800 C 53.380 172.800,53.200 173.265,53.200 173.833 M336.800 174.200 C 336.800 174.530,336.980 174.800,337.200 174.800 C 337.420 174.800,337.600 174.530,337.600 174.200 C 337.600 173.870,337.420 173.600,337.200 173.600 C 336.980 173.600,336.800 173.870,336.800 174.200 M336.295 175.473 C 335.849 176.263,335.619 178.000,335.961 178.000 C 336.370 178.000,337.000 175.667,336.678 175.345 C 336.569 175.236,336.397 175.294,336.295 175.473 M54.000 176.200 C 54.000 176.530,54.180 176.800,54.400 176.800 C 54.620 176.800,54.800 176.530,54.800 176.200 C 54.800 175.870,54.620 175.600,54.400 175.600 C 54.180 175.600,54.000 175.870,54.000 176.200 M334.692 179.170 C 334.551 179.710,334.656 179.877,335.045 179.727 C 335.350 179.610,335.600 179.264,335.600 178.957 C 335.600 178.126,334.924 178.284,334.692 179.170 M55.200 180.000 C 55.200 180.440,55.366 180.800,55.568 180.800 C 55.771 180.800,56.055 181.340,56.200 182.000 C 56.345 182.660,56.641 183.200,56.859 183.200 C 57.292 183.200,56.930 181.636,56.355 181.020 C 56.160 180.811,56.000 180.316,56.000 179.920 C 56.000 179.524,55.820 179.200,55.600 179.200 C 55.380 179.200,55.200 179.560,55.200 180.000 M332.800 182.424 C 332.800 182.877,332.980 183.136,333.200 183.000 C 333.420 182.864,333.600 182.493,333.600 182.176 C 333.600 181.859,333.420 181.600,333.200 181.600 C 332.980 181.600,332.800 181.971,332.800 182.424 M330.955 184.612 C 330.590 185.169,330.391 185.724,330.512 185.846 C 330.788 186.121,332.400 184.545,332.400 184.000 C 332.400 183.262,331.625 183.591,330.955 184.612 M58.400 186.157 C 58.400 186.464,58.650 186.810,58.955 186.927 C 59.344 187.077,59.449 186.910,59.308 186.370 C 59.076 185.484,58.400 185.326,58.400 186.157 M60.000 187.971 C 60.000 188.176,60.270 188.613,60.600 188.943 C 61.487 189.830,61.331 190.400,60.200 190.400 C 59.650 190.400,59.200 190.580,59.200 190.800 C 59.200 191.020,58.930 191.200,58.600 191.200 C 58.270 191.200,58.000 191.360,58.000 191.555 C 58.000 191.751,57.370 192.029,56.600 192.174 C 55.830 192.318,55.200 192.608,55.200 192.818 C 55.200 193.028,54.930 193.200,54.600 193.200 C 54.270 193.200,54.000 193.360,54.000 193.557 C 54.000 193.753,53.550 194.026,53.000 194.164 C 52.450 194.302,52.000 194.592,52.000 194.808 C 52.000 195.023,51.738 195.200,51.418 195.200 C 51.098 195.200,50.386 195.650,49.836 196.200 C 49.286 196.750,48.722 197.200,48.582 197.200 C 48.240 197.200,42.800 202.689,42.800 203.035 C 42.800 203.185,42.350 203.725,41.800 204.235 C 41.250 204.745,40.800 205.446,40.800 205.793 C 40.800 206.141,40.530 206.529,40.200 206.655 C 39.870 206.782,39.600 207.211,39.600 207.609 C 39.600 208.008,39.433 208.393,39.230 208.467 C 38.661 208.671,38.230 210.800,38.757 210.800 C 39.000 210.800,39.200 210.611,39.200 210.379 C 39.200 208.972,48.689 197.200,49.823 197.200 C 49.905 197.200,51.463 196.241,53.286 195.068 C 55.109 193.896,56.960 192.830,57.400 192.699 C 62.023 191.328,62.851 190.642,61.609 189.211 C 61.164 188.698,60.800 188.125,60.800 187.939 C 60.800 187.752,60.620 187.600,60.400 187.600 C 60.180 187.600,60.000 187.767,60.000 187.971 M327.000 190.335 C 325.226 190.629,323.668 191.402,324.060 191.794 C 324.200 191.933,325.793 191.767,327.601 191.424 C 335.442 189.936,350.527 192.211,352.800 195.223 C 352.910 195.369,353.630 195.811,354.400 196.206 C 356.958 197.518,364.800 204.441,364.800 205.388 C 364.800 205.523,365.176 206.031,365.635 206.517 C 366.094 207.003,366.838 208.120,367.289 209.000 C 367.739 209.880,368.228 210.690,368.376 210.800 C 368.827 211.137,371.134 217.634,371.855 220.600 C 372.327 222.541,372.541 225.148,372.553 229.100 C 372.566 233.473,372.690 234.800,373.085 234.800 C 373.483 234.800,373.600 233.390,373.600 228.600 C 373.600 225.190,373.443 222.400,373.252 222.400 C 373.060 222.400,372.779 221.140,372.627 219.600 C 372.476 218.060,372.182 216.800,371.976 216.800 C 371.769 216.800,371.600 216.350,371.600 215.800 C 371.600 215.250,371.428 214.800,371.218 214.800 C 371.008 214.800,370.718 214.170,370.574 213.400 C 370.429 212.630,370.151 212.000,369.955 212.000 C 369.760 212.000,369.600 211.730,369.600 211.400 C 369.600 211.070,369.440 210.800,369.243 210.800 C 369.047 210.800,368.765 210.316,368.617 209.724 C 368.468 209.132,368.024 208.367,367.630 208.024 C 367.237 207.681,366.787 206.995,366.630 206.500 C 366.474 206.005,366.190 205.600,366.000 205.600 C 365.810 205.600,365.529 205.206,365.376 204.725 C 365.224 204.244,364.492 203.299,363.751 202.625 C 363.009 201.951,362.177 201.192,361.901 200.937 C 361.626 200.682,361.040 200.016,360.600 199.455 C 360.160 198.895,359.566 198.429,359.281 198.418 C 358.995 198.408,358.345 197.950,357.835 197.400 C 357.325 196.850,356.704 196.400,356.454 196.400 C 356.204 196.400,356.000 196.223,356.000 196.008 C 356.000 195.792,355.550 195.502,355.000 195.364 C 354.450 195.226,354.000 194.961,354.000 194.775 C 354.000 194.589,353.370 194.318,352.600 194.174 C 351.830 194.029,351.200 193.751,351.200 193.555 C 351.200 193.360,350.930 193.200,350.600 193.200 C 350.270 193.200,350.000 193.022,350.000 192.805 C 350.000 192.587,349.280 192.294,348.400 192.154 C 347.520 192.013,346.800 191.741,346.800 191.549 C 346.800 191.357,346.185 191.200,345.433 191.200 C 344.682 191.200,343.996 190.989,343.910 190.731 C 343.734 190.202,329.777 189.875,327.000 190.335 M37.600 211.400 C 37.600 211.730,37.431 212.000,37.225 212.000 C 37.018 212.000,36.728 212.810,36.579 213.800 C 36.431 214.790,36.161 215.600,35.979 215.600 C 35.797 215.600,35.524 216.860,35.373 218.400 C 35.221 219.940,34.940 221.200,34.748 221.200 C 34.557 221.200,34.400 223.990,34.400 227.400 C 34.400 230.810,34.559 233.600,34.753 233.600 C 34.947 233.600,35.233 234.950,35.387 236.600 C 35.542 238.250,35.810 239.600,35.983 239.600 C 36.156 239.600,36.413 240.320,36.554 241.200 C 36.694 242.080,36.987 242.800,37.205 242.800 C 37.422 242.800,37.600 243.070,37.600 243.400 C 37.600 243.730,37.760 244.000,37.955 244.000 C 38.151 244.000,38.429 244.630,38.574 245.400 C 38.718 246.170,39.008 246.800,39.218 246.800 C 39.428 246.800,39.600 247.070,39.600 247.400 C 39.600 247.730,39.768 248.000,39.973 248.000 C 40.178 248.000,40.473 248.405,40.629 248.900 C 40.784 249.395,41.336 250.196,41.856 250.681 C 42.375 251.165,42.800 251.759,42.800 252.000 C 42.800 252.487,44.738 254.400,45.231 254.400 C 45.405 254.400,45.657 254.751,45.794 255.180 C 45.930 255.608,46.383 256.067,46.800 256.200 C 47.217 256.333,47.670 256.792,47.806 257.220 C 47.943 257.649,48.304 258.000,48.609 258.000 C 48.914 258.000,49.592 258.428,50.116 258.952 C 50.639 259.476,51.458 260.028,51.934 260.179 C 52.410 260.330,52.800 260.607,52.800 260.795 C 52.800 260.983,53.340 261.255,54.000 261.400 C 54.660 261.545,55.200 261.829,55.200 262.032 C 55.200 262.234,55.470 262.400,55.800 262.400 C 56.130 262.400,56.400 262.560,56.400 262.755 C 56.400 262.951,57.030 263.229,57.800 263.374 C 58.570 263.518,59.200 263.808,59.200 264.018 C 59.200 264.228,59.635 264.400,60.167 264.400 C 60.698 264.400,61.193 264.571,61.267 264.781 C 61.444 265.287,66.800 265.827,66.800 265.338 C 66.800 265.133,65.786 264.752,64.546 264.492 C 62.193 263.999,55.547 261.640,55.200 261.176 C 55.090 261.028,54.280 260.539,53.400 260.089 C 52.520 259.638,51.393 258.885,50.895 258.414 C 50.397 257.944,49.812 257.669,49.595 257.803 C 49.378 257.937,49.200 257.848,49.200 257.604 C 49.200 257.360,48.065 256.044,46.678 254.680 C 43.764 251.815,41.842 249.443,40.703 247.306 C 40.261 246.478,39.769 245.710,39.610 245.600 C 39.125 245.265,37.311 240.400,36.328 236.800 C 34.480 230.029,35.235 219.205,37.994 212.931 C 38.398 212.012,38.624 211.157,38.497 211.031 C 38.069 210.603,37.600 210.796,37.600 211.400 M372.000 236.073 C 372.000 237.123,368.850 246.515,368.402 246.800 C 368.229 246.910,367.707 247.732,367.241 248.627 C 366.776 249.522,366.036 250.640,365.598 251.110 C 365.159 251.581,364.800 252.065,364.800 252.186 C 364.800 253.087,357.066 259.933,354.506 261.297 C 353.678 261.739,352.910 262.235,352.800 262.400 C 351.725 264.010,340.174 266.800,334.583 266.800 C 330.290 266.800,330.757 266.292,329.794 272.000 C 327.477 285.715,321.024 303.183,314.076 314.541 C 313.154 316.048,312.400 317.340,312.400 317.412 C 312.400 317.552,309.245 322.238,307.113 325.264 C 302.763 331.439,292.496 342.394,286.369 347.400 C 281.021 351.769,275.883 355.536,272.613 357.487 C 271.286 358.279,269.923 359.162,269.584 359.449 C 265.299 363.084,245.518 371.081,233.500 374.037 C 229.767 374.955,228.984 375.600,231.600 375.600 C 232.480 375.600,233.200 375.420,233.200 375.200 C 233.200 374.980,233.740 374.800,234.400 374.800 C 235.060 374.800,235.600 374.646,235.600 374.457 C 235.600 374.268,236.715 373.997,238.078 373.855 C 239.440 373.713,240.655 373.435,240.778 373.237 C 240.900 373.040,241.855 372.750,242.900 372.594 C 243.945 372.437,244.800 372.150,244.800 371.955 C 244.800 371.760,245.250 371.600,245.800 371.600 C 246.350 371.600,246.800 371.437,246.800 371.238 C 246.800 371.038,247.700 370.751,248.800 370.600 C 249.900 370.449,250.800 370.162,250.800 369.962 C 250.800 369.763,251.070 369.600,251.400 369.600 C 251.730 369.600,252.000 369.443,252.000 369.251 C 252.000 369.059,252.720 368.787,253.600 368.646 C 254.480 368.506,255.200 368.213,255.200 367.995 C 255.200 367.778,255.470 367.600,255.800 367.600 C 256.130 367.600,256.400 367.431,256.400 367.225 C 256.400 367.018,257.210 366.728,258.200 366.579 C 259.190 366.431,260.000 366.164,260.000 365.986 C 260.000 365.809,260.540 365.545,261.200 365.400 C 261.860 365.255,262.400 364.971,262.400 364.768 C 262.400 364.566,262.670 364.400,263.000 364.400 C 263.330 364.400,263.600 364.223,263.600 364.008 C 263.600 363.792,264.050 363.502,264.600 363.364 C 265.150 363.226,265.600 362.953,265.600 362.757 C 265.600 362.560,265.870 362.400,266.200 362.400 C 266.530 362.400,266.800 362.240,266.800 362.045 C 266.800 361.849,267.430 361.571,268.200 361.426 C 268.970 361.282,269.600 361.004,269.600 360.809 C 269.600 360.614,270.005 360.326,270.500 360.170 C 270.995 360.013,271.670 359.577,272.000 359.200 C 272.330 358.823,273.050 358.373,273.600 358.200 C 274.150 358.027,274.870 357.577,275.200 357.200 C 275.530 356.823,276.196 356.389,276.680 356.237 C 277.163 356.084,277.670 355.608,277.806 355.180 C 277.943 354.751,278.407 354.400,278.840 354.400 C 279.272 354.400,279.729 354.130,279.855 353.800 C 279.982 353.470,280.328 353.200,280.625 353.200 C 280.921 353.200,281.592 352.772,282.116 352.248 C 282.639 351.724,283.448 351.175,283.913 351.027 C 284.379 350.880,284.867 350.417,285.000 350.000 C 285.133 349.583,285.592 349.130,286.020 348.994 C 286.449 348.857,286.800 348.578,286.800 348.373 C 286.800 348.168,286.988 348.000,287.217 348.000 C 287.447 348.000,289.059 346.560,290.800 344.800 C 292.541 343.040,294.231 341.600,294.556 341.600 C 294.881 341.600,295.265 341.226,295.410 340.769 C 295.555 340.312,297.168 338.443,298.995 336.617 C 300.821 334.790,302.434 332.923,302.578 332.468 C 302.723 332.013,303.183 331.533,303.600 331.400 C 304.017 331.267,304.470 330.808,304.606 330.380 C 304.743 329.951,305.022 329.600,305.227 329.600 C 305.432 329.600,305.600 329.396,305.600 329.146 C 305.600 328.896,306.029 328.294,306.553 327.808 C 307.077 327.322,307.630 326.537,307.780 326.062 C 307.931 325.588,308.222 325.200,308.427 325.200 C 308.632 325.200,308.800 325.007,308.800 324.771 C 308.800 324.536,309.025 324.092,309.300 323.785 C 310.487 322.462,310.800 322.009,310.800 321.617 C 310.800 321.388,310.977 321.200,311.192 321.200 C 311.408 321.200,311.698 320.750,311.836 320.200 C 311.974 319.650,312.228 319.200,312.400 319.200 C 312.572 319.200,312.826 318.750,312.964 318.200 C 313.102 317.650,313.392 317.200,313.608 317.200 C 313.823 317.200,314.000 316.930,314.000 316.600 C 314.000 316.270,314.177 316.000,314.392 316.000 C 314.608 316.000,314.898 315.550,315.036 315.000 C 315.174 314.450,315.447 314.000,315.643 314.000 C 315.840 314.000,316.000 313.730,316.000 313.400 C 316.000 313.070,316.172 312.800,316.382 312.800 C 316.592 312.800,316.881 312.176,317.024 311.414 C 317.178 310.591,317.575 309.935,318.000 309.800 C 318.425 309.665,318.822 309.009,318.976 308.186 C 319.119 307.424,319.406 306.800,319.613 306.800 C 319.821 306.800,320.106 306.080,320.246 305.200 C 320.387 304.320,320.659 303.600,320.851 303.600 C 321.043 303.600,321.200 303.330,321.200 303.000 C 321.200 302.670,321.360 302.400,321.555 302.400 C 321.751 302.400,322.029 301.770,322.174 301.000 C 322.318 300.230,322.608 299.600,322.818 299.600 C 323.028 299.600,323.200 299.150,323.200 298.600 C 323.200 298.050,323.378 297.600,323.595 297.600 C 323.813 297.600,324.106 296.880,324.246 296.000 C 324.387 295.120,324.659 294.400,324.851 294.400 C 325.043 294.400,325.200 293.950,325.200 293.400 C 325.200 292.850,325.363 292.400,325.562 292.400 C 325.762 292.400,326.049 291.500,326.200 290.400 C 326.351 289.300,326.627 288.400,326.813 288.400 C 326.999 288.400,327.272 287.590,327.421 286.600 C 327.569 285.610,327.850 284.800,328.045 284.800 C 328.240 284.800,328.400 284.170,328.400 283.400 C 328.400 282.630,328.566 282.000,328.768 282.000 C 328.971 282.000,329.262 280.830,329.415 279.400 C 329.568 277.970,329.852 276.800,330.047 276.800 C 330.241 276.800,330.400 275.900,330.400 274.800 C 330.400 273.700,330.580 272.800,330.800 272.800 C 331.020 272.800,331.202 272.035,331.205 271.100 C 331.217 267.525,331.108 267.600,336.247 267.600 C 338.751 267.600,340.800 267.441,340.800 267.247 C 340.800 267.053,342.150 266.767,343.800 266.613 C 345.450 266.458,346.800 266.190,346.800 266.017 C 346.800 265.844,347.520 265.587,348.400 265.446 C 349.280 265.306,350.000 265.013,350.000 264.795 C 350.000 264.578,350.270 264.400,350.600 264.400 C 350.930 264.400,351.200 264.240,351.200 264.045 C 351.200 263.849,351.830 263.571,352.600 263.426 C 353.370 263.282,354.000 262.992,354.000 262.782 C 354.000 262.572,354.270 262.400,354.600 262.400 C 354.930 262.400,355.200 262.232,355.200 262.027 C 355.200 261.822,355.605 261.527,356.100 261.371 C 356.595 261.216,357.396 260.664,357.881 260.144 C 358.365 259.625,358.959 259.200,359.200 259.200 C 359.687 259.200,361.600 257.262,361.600 256.769 C 361.600 256.595,361.951 256.343,362.380 256.206 C 362.808 256.070,363.267 255.617,363.400 255.200 C 363.533 254.783,363.992 254.330,364.420 254.194 C 364.849 254.057,365.200 253.716,365.200 253.434 C 365.200 253.153,365.560 252.507,366.000 252.000 C 366.440 251.493,366.800 250.875,366.800 250.627 C 366.800 250.379,367.153 249.922,367.585 249.611 C 368.017 249.299,368.481 248.540,368.617 247.922 C 368.753 247.305,369.029 246.800,369.232 246.800 C 369.434 246.800,369.600 246.530,369.600 246.200 C 369.600 245.870,369.760 245.600,369.955 245.600 C 370.151 245.600,370.429 244.970,370.574 244.200 C 370.718 243.430,371.008 242.800,371.218 242.800 C 371.428 242.800,371.600 242.365,371.600 241.833 C 371.600 241.302,371.771 240.807,371.981 240.733 C 372.561 240.530,373.018 235.200,372.455 235.200 C 372.205 235.200,372.000 235.593,372.000 236.073 M67.200 265.833 C 67.200 266.288,68.069 266.400,71.600 266.400 L 76.000 266.400 76.000 267.400 C 76.000 267.950,76.180 268.400,76.400 268.400 C 76.620 268.400,76.800 269.300,76.800 270.400 C 76.800 271.500,76.961 272.400,77.158 272.400 C 77.355 272.400,77.644 273.840,77.800 275.600 C 77.956 277.360,78.245 278.800,78.442 278.800 C 78.639 278.800,78.800 279.340,78.800 280.000 C 78.800 280.660,78.957 281.200,79.148 281.200 C 79.340 281.200,79.619 282.280,79.768 283.600 C 79.918 284.920,80.211 286.000,80.420 286.000 C 80.629 286.000,80.800 286.540,80.800 287.200 C 80.800 287.860,80.963 288.400,81.162 288.400 C 81.362 288.400,81.649 289.300,81.800 290.400 C 81.951 291.500,82.236 292.400,82.433 292.400 C 82.630 292.400,82.906 293.120,83.046 294.000 C 83.187 294.880,83.459 295.600,83.651 295.600 C 83.843 295.600,84.000 296.050,84.000 296.600 C 84.000 297.150,84.160 297.600,84.355 297.600 C 84.551 297.600,84.829 298.230,84.974 299.000 C 85.118 299.770,85.408 300.400,85.618 300.400 C 85.828 300.400,86.000 300.850,86.000 301.400 C 86.000 301.950,86.166 302.400,86.368 302.400 C 86.571 302.400,86.855 302.940,87.000 303.600 C 87.145 304.260,87.429 304.800,87.632 304.800 C 87.834 304.800,88.000 305.160,88.000 305.600 C 88.000 306.040,88.166 306.400,88.368 306.400 C 88.571 306.400,88.855 306.940,89.000 307.600 C 89.145 308.260,89.429 308.800,89.632 308.800 C 89.834 308.800,90.000 308.998,90.000 309.240 C 90.000 309.983,91.326 312.581,91.878 312.920 C 92.165 313.096,92.400 313.591,92.400 314.020 C 92.400 314.449,92.580 314.800,92.800 314.800 C 93.020 314.800,93.200 315.070,93.200 315.400 C 93.200 315.730,93.377 316.000,93.592 316.000 C 93.808 316.000,94.098 316.450,94.236 317.000 C 94.374 317.550,94.628 318.000,94.800 318.000 C 94.972 318.000,95.226 318.450,95.364 319.000 C 95.502 319.550,95.792 320.000,96.008 320.000 C 96.223 320.000,96.400 320.270,96.400 320.600 C 96.400 320.930,96.577 321.200,96.792 321.200 C 97.008 321.200,97.289 321.615,97.416 322.123 C 97.544 322.631,98.087 323.376,98.624 323.779 C 99.161 324.182,99.600 324.835,99.600 325.229 C 99.600 325.623,99.960 326.060,100.400 326.200 C 100.840 326.340,101.200 326.706,101.200 327.013 C 101.200 327.321,101.740 328.125,102.400 328.800 C 103.060 329.475,103.600 330.209,103.600 330.430 C 103.600 330.651,104.320 331.517,105.200 332.354 C 106.080 333.191,106.800 334.007,106.800 334.166 C 106.800 334.744,119.024 346.691,119.900 346.968 C 120.395 347.125,120.800 347.395,120.800 347.569 C 120.800 348.056,122.709 350.000,123.188 350.000 C 123.422 350.000,124.202 350.606,124.921 351.346 C 125.640 352.086,126.627 352.818,127.114 352.973 C 127.601 353.127,128.000 353.422,128.000 353.627 C 128.000 353.832,128.245 354.000,128.544 354.000 C 128.843 354.000,129.418 354.439,129.821 354.976 C 130.224 355.513,130.969 356.056,131.477 356.184 C 131.985 356.311,132.400 356.592,132.400 356.808 C 132.400 357.023,132.670 357.200,133.000 357.200 C 133.330 357.200,133.600 357.377,133.600 357.592 C 133.600 357.808,134.050 358.098,134.600 358.236 C 135.150 358.374,135.600 358.647,135.600 358.843 C 135.600 359.040,135.848 359.200,136.151 359.200 C 136.454 359.200,136.926 359.470,137.200 359.800 C 137.794 360.516,138.935 360.605,138.706 359.917 C 138.554 359.463,137.725 358.886,135.072 357.387 C 134.071 356.822,128.440 352.933,127.400 352.089 C 127.180 351.910,126.382 351.322,125.628 350.782 C 124.873 350.242,123.960 349.530,123.598 349.200 C 121.984 347.725,120.400 346.406,120.400 346.537 C 120.400 346.864,108.855 335.215,107.200 333.217 C 106.210 332.022,105.040 330.658,104.600 330.184 C 104.160 329.711,103.358 328.711,102.818 327.962 C 102.278 327.213,101.690 326.420,101.511 326.200 C 100.667 325.160,96.778 319.529,96.213 318.528 C 95.862 317.908,95.266 316.921,94.888 316.335 C 92.488 312.619,88.721 305.272,86.292 299.566 C 84.046 294.290,83.897 293.912,83.376 292.200 C 80.579 283.012,79.387 278.410,78.348 272.802 C 77.676 269.171,77.007 266.087,76.863 265.950 C 76.241 265.357,67.200 265.248,67.200 265.833 M138.988 360.345 C 138.551 360.782,138.856 361.200,139.613 361.200 C 140.059 361.200,140.529 361.470,140.655 361.800 C 140.782 362.130,141.136 362.400,141.443 362.400 C 141.749 362.400,142.000 362.560,142.000 362.755 C 142.000 362.951,142.630 363.229,143.400 363.374 C 144.170 363.518,144.800 363.808,144.800 364.018 C 144.800 364.228,145.070 364.400,145.400 364.400 C 145.730 364.400,146.000 364.560,146.000 364.755 C 146.000 364.951,146.630 365.229,147.400 365.374 C 148.170 365.518,148.800 365.794,148.800 365.986 C 148.800 366.179,149.340 366.455,150.000 366.600 C 150.660 366.745,151.200 367.029,151.200 367.232 C 151.200 367.434,151.650 367.600,152.200 367.600 C 152.750 367.600,153.200 367.760,153.200 367.955 C 153.200 368.151,153.830 368.429,154.600 368.574 C 155.370 368.718,156.000 369.008,156.000 369.218 C 156.000 369.428,156.450 369.600,157.000 369.600 C 157.550 369.600,158.000 369.757,158.000 369.949 C 158.000 370.141,158.720 370.413,159.600 370.554 C 160.480 370.694,161.200 370.987,161.200 371.205 C 161.200 371.422,161.650 371.600,162.200 371.600 C 162.750 371.600,163.200 371.767,163.200 371.971 C 163.200 372.175,164.190 372.466,165.400 372.617 C 166.610 372.768,167.600 373.043,167.600 373.226 C 167.600 373.410,168.680 373.682,170.000 373.832 C 171.320 373.981,172.400 374.260,172.400 374.452 C 172.400 374.643,172.940 374.800,173.600 374.800 C 174.260 374.800,174.800 374.964,174.800 375.164 C 174.800 375.364,176.330 375.656,178.200 375.811 C 180.070 375.967,181.600 376.253,181.600 376.447 C 181.600 376.641,182.395 376.800,183.367 376.800 C 184.338 376.800,185.193 376.970,185.267 377.178 C 185.340 377.385,188.623 377.683,192.562 377.840 C 197.942 378.054,199.653 378.010,199.439 377.662 C 199.269 377.388,198.067 377.199,196.476 377.197 C 193.728 377.194,186.370 376.362,182.322 375.598 C 181.069 375.361,179.539 375.102,178.922 375.021 C 177.766 374.870,170.329 373.043,168.200 372.387 C 159.410 369.679,154.102 367.569,146.173 363.631 C 142.325 361.720,139.092 360.241,138.988 360.345 M227.600 375.234 C 224.047 376.014,217.403 376.873,213.400 377.071 C 210.980 377.190,208.820 377.471,208.600 377.694 C 208.329 377.969,210.464 378.014,215.200 377.833 C 219.050 377.686,222.260 377.393,222.333 377.183 C 222.407 376.972,223.352 376.800,224.433 376.800 C 225.515 376.800,226.400 376.620,226.400 376.400 C 226.400 376.180,227.120 376.000,228.000 376.000 C 228.880 376.000,229.600 375.831,229.600 375.624 C 229.600 375.009,229.082 374.908,227.600 375.234 " stroke="none" fill="#f6ede3" fill-rule="evenodd"></path><path id="path3" d="M259.600 20.400 C 259.600 20.642,261.333 20.800,264.000 20.800 C 266.667 20.800,268.400 20.642,268.400 20.400 C 268.400 20.158,266.667 20.000,264.000 20.000 C 261.333 20.000,259.600 20.158,259.600 20.400 M255.492 21.237 C 255.102 21.463,254.427 21.536,253.992 21.397 C 253.540 21.254,253.200 21.330,253.200 21.573 C 253.200 21.808,252.750 22.000,252.200 22.000 C 251.650 22.000,251.200 22.180,251.200 22.400 C 251.200 22.905,251.584 22.903,253.043 22.395 C 253.683 22.172,255.375 21.736,256.803 21.426 C 259.116 20.925,259.225 20.861,257.800 20.844 C 256.920 20.833,255.881 21.010,255.492 21.237 M272.037 21.601 C 274.929 22.225,276.780 22.853,281.100 24.675 C 281.375 24.791,281.600 24.686,281.600 24.443 C 281.600 24.199,281.330 24.000,281.000 24.000 C 280.670 24.000,280.400 23.826,280.400 23.613 C 280.400 23.399,280.159 23.318,279.864 23.431 C 279.569 23.544,279.106 23.369,278.835 23.042 C 278.564 22.715,278.103 22.539,277.811 22.651 C 277.520 22.763,277.162 22.662,277.017 22.427 C 276.872 22.192,276.313 22.000,275.776 22.000 C 275.239 22.000,274.800 21.817,274.800 21.592 C 274.800 21.362,274.383 21.289,273.844 21.425 C 273.318 21.557,272.767 21.470,272.620 21.232 C 272.473 20.995,271.508 20.813,270.476 20.830 C 268.756 20.857,268.885 20.921,272.037 21.601 M249.446 23.025 C 249.198 23.670,249.536 23.755,250.334 23.250 C 250.768 22.974,250.755 22.868,250.267 22.681 C 249.936 22.554,249.567 22.709,249.446 23.025 M247.300 23.882 C 246.805 23.978,246.400 24.238,246.400 24.461 C 246.400 24.684,246.175 24.790,245.900 24.696 C 245.625 24.602,245.130 24.821,244.800 25.183 C 244.470 25.545,243.545 26.146,242.744 26.519 C 241.942 26.891,241.180 27.475,241.049 27.816 C 240.918 28.157,240.159 28.709,239.362 29.042 C 238.565 29.375,237.821 29.997,237.710 30.424 C 237.492 31.256,235.600 31.555,235.600 30.757 C 235.600 30.511,235.309 30.426,234.944 30.566 C 234.583 30.705,233.908 30.583,233.444 30.295 C 232.910 29.963,232.086 29.867,231.200 30.033 C 230.430 30.177,230.160 30.316,230.600 30.342 C 231.040 30.368,232.678 30.689,234.239 31.054 L 237.079 31.718 239.741 29.522 C 241.205 28.314,243.887 26.488,245.701 25.463 C 247.516 24.438,248.820 23.625,248.600 23.654 C 248.380 23.684,247.795 23.787,247.300 23.882 M282.092 25.025 C 282.216 25.149,283.224 25.824,284.332 26.525 C 290.684 30.544,296.578 37.473,299.194 44.000 C 300.686 47.720,300.837 47.961,300.573 46.200 C 300.441 45.320,300.168 44.540,299.967 44.467 C 299.765 44.393,299.600 43.999,299.600 43.590 C 299.600 43.182,299.408 42.728,299.173 42.583 C 298.938 42.438,298.842 42.067,298.960 41.760 C 299.078 41.452,299.001 41.200,298.787 41.200 C 298.574 41.200,298.400 40.859,298.400 40.443 C 298.400 40.026,298.130 39.582,297.800 39.455 C 297.470 39.329,297.200 38.949,297.200 38.613 C 297.200 38.276,297.020 38.000,296.800 38.000 C 296.580 38.000,296.398 37.775,296.396 37.500 C 296.393 37.225,295.763 36.390,294.996 35.644 C 294.228 34.898,293.600 34.059,293.600 33.780 C 293.600 33.178,289.631 29.203,289.021 29.194 C 288.367 29.184,285.986 26.947,286.298 26.635 C 286.451 26.483,286.311 26.458,285.988 26.581 C 285.665 26.704,284.877 26.353,284.238 25.802 C 283.283 24.979,281.343 24.277,282.092 25.025 M161.741 26.819 C 161.511 27.049,160.575 27.267,159.661 27.304 C 158.748 27.340,158.000 27.518,158.000 27.699 C 158.000 27.880,158.945 27.886,160.100 27.714 C 172.349 25.884,184.375 29.872,193.117 38.664 C 197.037 42.606,196.544 42.497,199.015 39.971 C 200.796 38.151,200.877 37.996,199.800 38.462 C 198.555 39.001,196.811 40.702,196.787 41.400 C 196.766 42.009,195.200 39.992,195.200 39.356 C 195.200 39.050,195.045 38.800,194.856 38.800 C 194.667 38.800,193.839 38.166,193.017 37.390 C 192.195 36.615,191.005 35.713,190.373 35.386 C 189.741 35.059,189.032 34.434,188.798 33.996 C 188.564 33.558,188.101 33.200,187.769 33.200 C 187.438 33.200,186.773 32.833,186.291 32.385 C 185.810 31.936,185.007 31.466,184.508 31.341 C 184.009 31.216,183.600 30.961,183.600 30.775 C 183.600 30.589,182.968 30.318,182.196 30.173 C 181.423 30.028,180.693 29.750,180.572 29.555 C 180.451 29.360,180.003 29.200,179.576 29.200 C 179.149 29.200,178.800 29.033,178.800 28.829 C 178.800 28.625,177.810 28.334,176.600 28.183 C 175.390 28.032,174.400 27.777,174.400 27.617 C 174.400 27.457,173.570 27.314,172.555 27.299 C 171.541 27.283,170.515 27.075,170.275 26.835 C 169.712 26.272,162.302 26.258,161.741 26.819 M154.300 28.287 C 153.695 28.378,153.200 28.621,153.200 28.827 C 153.200 29.032,152.951 29.200,152.646 29.200 C 152.341 29.200,151.576 29.469,150.946 29.798 C 150.316 30.126,149.485 30.396,149.100 30.398 C 148.715 30.399,148.400 30.560,148.400 30.757 C 148.400 30.953,147.950 31.226,147.400 31.364 C 146.850 31.502,146.400 31.792,146.400 32.008 C 146.400 32.223,146.130 32.400,145.800 32.400 C 145.470 32.400,145.200 32.560,145.200 32.757 C 145.200 32.953,144.750 33.226,144.200 33.364 C 143.650 33.502,143.200 33.793,143.200 34.011 C 143.200 34.229,142.345 34.941,141.300 35.593 C 138.985 37.037,137.236 38.849,136.004 41.079 C 135.493 42.003,134.883 42.723,134.647 42.679 C 134.412 42.636,134.157 43.005,134.082 43.500 C 134.006 43.995,133.777 44.400,133.572 44.400 C 133.367 44.400,133.200 44.670,133.200 45.000 C 133.200 45.330,133.047 45.600,132.860 45.600 C 132.673 45.600,132.187 46.410,131.778 47.400 C 131.370 48.390,130.899 49.200,130.731 49.200 C 130.563 49.200,130.528 49.468,130.654 49.797 C 130.786 50.140,130.605 50.500,130.230 50.644 C 129.806 50.806,129.660 51.160,129.815 51.647 C 129.947 52.063,129.863 52.400,129.627 52.400 C 129.392 52.400,129.200 52.760,129.200 53.200 C 129.200 53.947,128.933 54.000,125.200 54.000 C 122.710 54.000,121.200 54.156,121.200 54.414 C 121.200 54.680,122.659 54.787,125.272 54.714 L 129.343 54.600 130.607 51.400 C 134.750 40.903,143.506 32.621,154.000 29.276 C 155.430 28.820,156.870 28.360,157.200 28.255 C 157.914 28.027,155.867 28.049,154.300 28.287 M220.200 29.600 C 220.040 29.858,221.670 30.000,224.800 30.000 C 227.930 30.000,229.560 29.858,229.400 29.600 C 229.260 29.373,227.270 29.200,224.800 29.200 C 222.330 29.200,220.340 29.373,220.200 29.600 M216.684 30.148 C 216.613 30.360,215.981 30.533,215.278 30.533 C 214.575 30.533,214.000 30.683,214.000 30.867 C 214.000 31.050,213.561 31.200,213.024 31.200 C 212.487 31.200,211.934 31.383,211.796 31.607 C 211.658 31.830,211.376 31.909,211.169 31.781 C 210.963 31.653,210.511 31.832,210.165 32.178 C 209.819 32.524,209.370 32.705,209.168 32.580 C 208.965 32.455,208.800 32.543,208.800 32.776 C 208.800 33.009,208.440 33.200,208.000 33.200 C 207.560 33.200,207.200 33.360,207.200 33.557 C 207.200 33.753,206.750 34.026,206.200 34.164 C 205.650 34.302,205.200 34.607,205.200 34.841 C 205.200 35.075,205.335 35.199,205.500 35.116 C 211.180 32.273,215.031 30.883,218.800 30.316 C 219.604 30.195,219.508 30.126,218.306 29.964 C 217.485 29.853,216.755 29.936,216.684 30.148 M203.150 35.911 C 202.572 36.261,201.884 36.894,201.619 37.318 C 201.189 38.007,202.804 37.027,204.580 35.522 C 205.234 34.968,204.273 35.229,203.150 35.911 M300.800 48.300 C 300.800 48.465,301.067 49.860,301.393 51.400 C 302.160 55.021,302.168 63.052,301.408 66.200 C 300.549 69.760,300.624 70.146,302.573 72.151 C 303.549 73.155,305.356 75.241,306.590 76.788 C 308.827 79.591,308.841 79.600,310.817 79.600 C 313.576 79.600,313.312 78.867,310.500 78.720 C 308.478 78.615,308.185 78.493,308.075 77.719 C 308.006 77.234,307.642 76.740,307.267 76.621 C 306.892 76.502,306.228 75.730,305.792 74.905 C 305.356 74.080,304.238 72.637,303.306 71.698 C 301.624 70.004,301.067 68.386,301.772 67.245 C 302.739 65.681,302.795 51.431,301.838 50.738 C 301.639 50.594,301.492 49.919,301.511 49.238 C 301.531 48.557,301.379 48.000,301.173 48.000 C 300.968 48.000,300.800 48.135,300.800 48.300 M116.800 55.197 C 116.470 55.409,115.885 55.484,115.500 55.364 C 115.115 55.244,114.800 55.338,114.800 55.573 C 114.800 55.808,114.361 56.000,113.824 56.000 C 113.287 56.000,112.731 56.187,112.590 56.416 C 112.448 56.645,112.009 56.730,111.614 56.604 C 111.163 56.461,110.801 56.620,110.644 57.030 C 110.500 57.405,110.140 57.586,109.797 57.454 C 109.468 57.328,109.200 57.399,109.200 57.613 C 109.200 57.826,108.930 58.000,108.600 58.000 C 108.270 58.000,108.000 58.180,108.000 58.400 C 108.000 58.894,108.512 58.918,109.020 58.449 C 109.863 57.672,116.432 55.651,120.000 55.071 C 120.550 54.982,120.190 54.887,119.200 54.861 C 118.210 54.834,117.130 54.985,116.800 55.197 M105.362 59.800 C 104.723 60.349,104.020 60.804,103.800 60.811 C 103.580 60.817,102.875 61.357,102.233 62.011 C 101.592 62.665,100.855 63.200,100.596 63.200 C 99.990 63.200,96.000 67.015,96.000 67.594 C 96.000 68.093,95.410 68.871,94.100 70.100 C 93.605 70.564,93.200 71.182,93.200 71.472 C 93.200 71.762,93.020 72.000,92.800 72.000 C 92.580 72.000,92.400 72.276,92.400 72.613 C 92.400 72.949,92.120 73.333,91.777 73.464 C 91.434 73.596,91.251 73.957,91.370 74.267 C 91.489 74.577,91.331 74.928,91.019 75.048 C 90.706 75.168,90.541 75.503,90.653 75.793 C 90.764 76.082,90.662 76.438,90.427 76.583 C 90.192 76.728,90.000 77.182,90.000 77.590 C 90.000 77.999,89.835 78.393,89.633 78.467 C 89.432 78.540,89.159 79.320,89.027 80.200 C 88.763 81.961,88.914 81.720,90.406 78.000 C 93.118 71.234,99.528 63.783,105.700 60.221 C 106.745 59.617,107.600 59.051,107.600 58.962 C 107.600 58.472,106.372 58.931,105.362 59.800 M313.233 79.749 C 313.697 80.163,317.265 80.429,317.019 80.031 C 316.873 79.794,315.923 79.600,314.910 79.600 C 313.896 79.600,313.142 79.667,313.233 79.749 M67.725 80.435 C 67.485 80.675,66.459 80.883,65.445 80.899 C 64.430 80.914,63.600 81.057,63.600 81.217 C 63.600 81.377,62.610 81.632,61.400 81.783 C 60.190 81.934,59.200 82.225,59.200 82.429 C 59.200 82.633,58.750 82.800,58.200 82.800 C 57.650 82.800,57.200 83.001,57.200 83.247 C 57.200 83.496,56.847 83.601,56.400 83.484 C 55.960 83.369,55.600 83.438,55.600 83.637 C 55.600 83.837,55.330 84.000,55.000 84.000 C 54.670 84.000,54.400 84.160,54.400 84.357 C 54.400 84.553,53.916 84.835,53.324 84.983 C 52.732 85.132,51.967 85.576,51.624 85.970 C 51.281 86.363,50.595 86.813,50.100 86.970 C 49.605 87.126,49.200 87.411,49.200 87.602 C 49.200 87.794,48.051 88.706,46.646 89.630 C 44.857 90.806,43.664 91.982,42.661 93.555 C 41.874 94.791,40.863 96.066,40.415 96.389 C 39.967 96.712,39.600 97.192,39.600 97.455 C 39.600 97.718,39.465 97.993,39.300 98.067 C 38.855 98.264,37.588 100.800,37.934 100.800 C 38.097 100.800,39.023 99.585,39.991 98.100 C 48.002 85.820,63.153 79.110,77.900 81.314 C 79.055 81.486,80.000 81.480,80.000 81.299 C 80.000 81.118,79.252 80.940,78.339 80.904 C 77.425 80.867,76.489 80.649,76.259 80.419 C 75.698 79.858,68.288 79.872,67.725 80.435 M318.062 80.353 C 317.670 80.601,317.834 80.768,318.662 80.966 C 319.288 81.116,320.115 81.332,320.500 81.446 C 320.885 81.560,321.200 81.462,321.200 81.227 C 321.200 80.992,320.750 80.800,320.200 80.800 C 319.650 80.800,319.200 80.620,319.200 80.400 C 319.200 79.914,318.782 79.897,318.062 80.353 M82.000 82.155 C 82.990 82.457,84.307 82.905,84.926 83.152 C 86.303 83.700,86.400 83.703,86.400 83.200 C 86.400 82.980,86.055 82.800,85.633 82.800 C 85.212 82.800,84.807 82.631,84.733 82.425 C 84.660 82.218,83.610 81.949,82.400 81.827 L 80.200 81.606 82.000 82.155 M325.029 83.356 C 333.841 87.691,340.347 94.641,343.922 103.539 C 344.793 105.708,345.164 106.270,345.370 105.735 C 345.522 105.339,345.456 104.952,345.223 104.874 C 344.990 104.797,344.800 104.388,344.800 103.967 C 344.800 103.545,344.620 103.200,344.400 103.200 C 344.180 103.200,344.000 102.951,344.000 102.646 C 344.000 102.341,343.731 101.576,343.402 100.946 C 343.074 100.316,342.804 99.504,342.802 99.143 C 342.801 98.781,342.530 98.382,342.200 98.255 C 341.870 98.129,341.600 97.749,341.600 97.413 C 341.600 97.076,341.420 96.800,341.200 96.800 C 340.980 96.800,340.800 96.562,340.800 96.272 C 340.800 95.982,340.395 95.372,339.900 94.917 C 338.783 93.891,337.600 92.345,337.600 91.912 C 337.600 91.732,336.975 91.004,336.212 90.293 C 334.162 88.384,333.671 88.000,333.284 88.000 C 333.091 88.000,332.408 87.465,331.767 86.811 C 331.125 86.157,330.375 85.617,330.100 85.611 C 329.825 85.605,329.600 85.420,329.600 85.200 C 329.600 84.980,329.330 84.800,329.000 84.800 C 328.670 84.800,328.400 84.634,328.400 84.432 C 328.400 84.229,327.860 83.945,327.200 83.800 C 326.540 83.655,326.000 83.371,326.000 83.168 C 326.000 82.966,325.730 82.800,325.400 82.800 C 325.070 82.800,324.800 82.626,324.800 82.413 C 324.800 82.199,324.548 82.122,324.240 82.240 C 323.933 82.358,323.562 82.262,323.417 82.027 C 323.272 81.792,322.771 81.600,322.305 81.600 C 321.839 81.600,323.065 82.390,325.029 83.356 M88.000 82.771 C 88.000 83.195,87.685 83.633,87.300 83.745 C 86.896 83.862,87.022 83.917,87.600 83.874 C 88.596 83.800,89.392 82.000,88.428 82.000 C 88.193 82.000,88.000 82.347,88.000 82.771 M37.337 101.917 C 37.211 102.403,36.948 102.800,36.753 102.800 C 36.559 102.800,36.400 103.160,36.400 103.600 C 36.400 104.040,36.231 104.400,36.025 104.400 C 35.818 104.400,35.528 105.210,35.379 106.200 C 35.231 107.190,34.950 108.000,34.755 108.000 C 34.560 108.000,34.400 108.615,34.400 109.367 C 34.400 110.118,34.235 110.793,34.033 110.867 C 33.831 110.940,33.765 111.508,33.885 112.130 C 34.059 113.026,34.327 112.405,35.179 109.130 C 35.770 106.858,36.659 104.218,37.154 103.261 C 37.650 102.305,37.946 101.413,37.812 101.279 C 37.678 101.145,37.464 101.432,37.337 101.917 M345.218 107.300 C 345.278 108.997,346.284 111.686,346.521 110.781 C 346.661 110.244,346.575 109.708,346.323 109.552 C 346.077 109.400,345.892 108.719,345.911 108.038 C 345.931 107.357,345.779 106.800,345.573 106.800 C 345.368 106.800,345.208 107.025,345.218 107.300 M346.514 117.445 C 346.462 127.451,343.688 135.022,337.258 142.704 L 335.496 144.807 336.518 147.904 C 338.739 154.637,339.409 162.844,338.167 168.100 C 338.002 168.798,338.070 169.200,338.353 169.200 C 338.623 169.200,338.800 168.406,338.800 167.200 C 338.800 166.100,338.980 165.200,339.200 165.200 C 339.442 165.200,339.600 163.467,339.600 160.800 C 339.600 158.133,339.442 156.400,339.200 156.400 C 338.980 156.400,338.800 155.500,338.800 154.400 C 338.800 153.185,338.623 152.400,338.350 152.400 C 338.063 152.400,337.987 151.964,338.140 151.200 C 338.275 150.523,338.210 150.000,337.990 150.000 C 337.776 150.000,337.600 149.550,337.600 149.000 C 337.600 148.450,337.420 148.000,337.200 148.000 C 336.980 148.000,336.800 147.651,336.800 147.224 C 336.800 146.797,336.620 146.336,336.400 146.200 C 335.713 145.776,335.963 144.466,336.780 144.206 C 337.208 144.070,337.682 143.571,337.833 143.096 C 337.984 142.622,338.711 141.596,339.450 140.817 C 340.189 140.038,340.795 139.175,340.797 138.900 C 340.798 138.625,340.951 138.400,341.136 138.400 C 341.320 138.400,341.815 137.682,342.236 136.805 C 342.656 135.927,343.129 135.207,343.287 135.205 C 343.446 135.202,343.471 134.930,343.345 134.600 C 343.218 134.270,343.314 134.000,343.557 134.000 C 343.801 134.000,344.000 133.640,344.000 133.200 C 344.000 132.760,344.180 132.400,344.400 132.400 C 344.620 132.400,344.800 131.950,344.800 131.400 C 344.800 130.850,344.992 130.400,345.227 130.400 C 345.466 130.400,345.547 130.062,345.411 129.634 C 345.277 129.212,345.355 128.752,345.584 128.610 C 345.813 128.469,346.000 127.823,346.000 127.176 C 346.000 126.529,346.167 126.000,346.372 126.000 C 346.576 126.000,346.751 125.415,346.761 124.700 C 346.771 123.985,346.888 121.240,347.022 118.600 C 347.155 115.960,347.102 113.370,346.903 112.845 C 346.658 112.197,346.533 113.674,346.514 117.445 M33.452 114.500 C 33.092 115.842,33.204 122.879,33.600 123.800 C 33.815 124.301,33.954 122.545,33.972 119.100 C 34.000 113.612,33.908 112.799,33.452 114.500 M33.888 125.857 C 33.766 126.485,33.831 127.060,34.033 127.133 C 34.235 127.207,34.400 127.882,34.400 128.633 C 34.400 129.385,34.569 130.000,34.775 130.000 C 34.982 130.000,35.272 130.810,35.421 131.800 C 35.569 132.790,35.850 133.600,36.045 133.600 C 36.240 133.600,36.400 133.960,36.400 134.400 C 36.400 134.840,36.535 135.201,36.700 135.203 C 37.132 135.208,38.018 137.248,37.765 137.656 C 37.648 137.845,37.702 138.000,37.885 138.000 C 38.068 138.000,38.573 138.675,39.007 139.500 C 39.441 140.325,40.097 141.225,40.465 141.500 C 40.833 141.775,41.544 142.675,42.045 143.500 C 43.243 145.474,45.395 147.622,47.500 148.943 C 48.435 149.530,49.200 150.176,49.200 150.378 C 49.200 150.580,49.605 150.874,50.100 151.030 C 50.595 151.187,51.281 151.637,51.624 152.030 C 51.967 152.424,52.693 152.858,53.237 152.995 C 54.270 153.254,54.586 155.128,53.809 156.385 C 53.090 157.548,52.546 168.429,53.154 169.475 C 53.466 170.011,53.579 168.887,53.588 165.155 C 53.595 162.380,53.807 159.140,54.060 157.955 C 54.980 153.650,54.867 153.223,52.428 151.786 C 43.972 146.802,37.489 138.081,35.041 128.397 C 34.287 125.413,34.068 124.930,33.888 125.857 M152.200 169.901 C 147.498 175.558,137.933 180.480,129.221 181.727 L 125.841 182.210 123.508 185.672 C 115.699 197.255,104.108 203.178,90.234 202.675 C 84.309 202.460,82.704 202.173,77.880 200.467 C 68.839 197.270,60.075 188.753,56.406 179.600 C 54.914 175.880,54.763 175.639,55.027 177.400 C 55.159 178.280,55.432 179.060,55.633 179.133 C 55.835 179.207,56.000 179.601,56.000 180.010 C 56.000 180.418,56.166 180.855,56.369 180.981 C 56.572 181.106,56.857 181.747,57.001 182.405 C 57.145 183.062,57.426 183.600,57.624 183.600 C 57.822 183.600,58.098 184.050,58.236 184.600 C 58.374 185.150,58.647 185.600,58.843 185.600 C 59.040 185.600,59.200 185.819,59.200 186.086 C 59.200 186.353,59.552 186.938,59.982 187.386 C 60.413 187.834,61.980 189.519,63.465 191.130 C 80.414 209.519,110.696 206.779,124.000 185.653 C 125.064 183.963,126.127 182.733,126.600 182.644 C 127.040 182.561,129.020 182.193,131.000 181.826 C 135.326 181.024,139.952 179.493,142.049 178.169 C 142.893 177.636,143.669 177.200,143.772 177.200 C 144.371 177.200,148.225 174.207,150.844 171.706 C 154.252 168.453,154.282 168.438,154.772 169.727 C 155.298 171.111,159.069 175.929,161.374 178.163 C 173.231 189.653,190.916 192.295,205.784 184.798 L 209.767 182.789 210.584 183.698 C 211.033 184.198,212.104 185.482,212.965 186.551 C 222.847 198.819,245.473 203.282,258.950 195.620 C 262.549 193.573,263.568 192.915,265.400 191.453 C 266.500 190.576,268.244 189.052,269.276 188.067 L 271.153 186.277 273.476 188.401 C 286.084 199.925,304.658 202.901,317.950 195.526 C 321.025 193.819,322.252 193.009,323.701 191.727 C 324.527 190.997,325.435 190.400,325.718 190.400 C 326.390 190.400,329.760 186.825,330.575 185.248 C 330.923 184.574,331.566 183.832,332.004 183.598 C 332.442 183.364,332.800 182.818,332.800 182.386 C 332.800 181.954,332.980 181.600,333.200 181.600 C 333.420 181.600,333.600 181.330,333.600 181.000 C 333.600 180.670,333.777 180.400,333.992 180.400 C 334.208 180.400,334.498 179.950,334.636 179.400 C 334.774 178.850,335.039 178.400,335.225 178.400 C 335.411 178.400,335.682 177.768,335.827 176.996 C 335.972 176.223,336.250 175.493,336.445 175.372 C 336.640 175.251,336.800 174.803,336.800 174.376 C 336.800 173.949,336.980 173.600,337.200 173.600 C 337.420 173.600,337.600 173.165,337.600 172.633 C 337.600 172.102,337.790 171.603,338.021 171.526 C 338.291 171.436,338.318 171.049,338.098 170.453 C 337.797 169.638,337.667 169.832,337.066 171.993 C 329.585 198.901,294.848 207.961,274.234 188.381 L 271.208 185.506 267.862 188.673 C 251.580 204.085,224.525 201.869,211.400 184.048 C 210.001 182.149,209.688 182.088,207.692 183.324 C 190.851 193.757,167.210 188.154,156.117 171.100 C 154.107 168.010,153.840 167.928,152.200 169.901 M53.504 171.399 C 53.375 172.070,53.460 172.714,53.699 172.861 C 53.932 173.005,54.108 173.681,54.089 174.362 C 54.069 175.043,54.221 175.600,54.427 175.600 C 54.908 175.600,54.879 175.083,54.251 172.400 C 53.777 170.377,53.717 170.296,53.504 171.399 " stroke="none" fill="#cbb9ac" fill-rule="evenodd"></path><path id="path4" d="M258.000 21.153 C 257.230 21.289,259.911 21.400,263.958 21.400 C 268.005 21.400,270.615 21.275,269.758 21.123 C 267.874 20.788,259.950 20.808,258.000 21.153 M254.400 22.000 C 253.596 22.257,253.557 22.323,254.200 22.332 C 254.640 22.338,255.360 22.189,255.800 22.000 C 256.819 21.562,255.768 21.562,254.400 22.000 M272.400 21.994 C 272.730 22.211,273.435 22.391,273.967 22.394 C 275.251 22.402,274.925 22.175,273.200 21.858 C 272.215 21.677,271.978 21.718,272.400 21.994 M275.600 22.733 C 275.930 22.936,276.650 23.224,277.200 23.371 C 277.895 23.557,278.017 23.525,277.600 23.267 C 277.270 23.064,276.550 22.776,276.000 22.629 C 275.305 22.443,275.183 22.475,275.600 22.733 M250.400 23.200 C 249.867 23.545,249.867 23.588,250.400 23.588 C 250.730 23.588,251.270 23.413,251.600 23.200 C 252.133 22.855,252.133 22.812,251.600 22.812 C 251.270 22.812,250.730 22.987,250.400 23.200 M245.701 25.463 C 243.887 26.488,241.259 28.269,239.862 29.422 C 238.464 30.575,236.978 31.606,236.560 31.713 C 235.889 31.885,235.883 31.913,236.509 31.954 C 236.899 31.979,238.699 30.833,240.509 29.406 C 242.319 27.980,245.105 26.149,246.700 25.339 C 248.295 24.528,249.600 23.805,249.600 23.732 C 249.600 23.368,248.718 23.759,245.701 25.463 M280.546 24.705 C 280.649 24.867,281.424 25.356,282.267 25.790 C 289.060 29.291,295.766 36.716,298.800 44.095 C 299.319 45.357,299.825 46.308,299.926 46.207 C 301.152 44.981,293.868 34.288,288.873 29.982 C 285.639 27.194,279.761 23.468,280.546 24.705 M164.100 27.494 C 165.145 27.576,166.855 27.576,167.900 27.494 C 168.945 27.412,168.090 27.344,166.000 27.344 C 163.910 27.344,163.055 27.412,164.100 27.494 M157.800 28.191 C 155.118 28.880,156.376 28.906,159.400 28.224 C 160.720 27.926,161.350 27.681,160.800 27.679 C 160.250 27.678,158.900 27.908,157.800 28.191 M172.600 28.224 C 173.920 28.521,175.270 28.752,175.600 28.735 C 176.538 28.688,172.322 27.676,171.200 27.679 C 170.650 27.681,171.280 27.926,172.600 28.224 M154.000 29.200 C 153.467 29.545,153.467 29.588,154.000 29.588 C 154.330 29.588,154.870 29.413,155.200 29.200 C 155.733 28.855,155.733 28.812,155.200 28.812 C 154.870 28.812,154.330 28.987,154.000 29.200 M176.433 28.963 C 176.715 29.239,181.384 30.749,181.524 30.609 C 181.690 30.443,177.326 28.800,176.718 28.800 C 176.470 28.800,176.342 28.873,176.433 28.963 M150.000 30.800 C 149.230 31.222,148.780 31.566,149.000 31.566 C 149.220 31.566,150.030 31.222,150.800 30.800 C 151.570 30.378,152.020 30.034,151.800 30.034 C 151.580 30.034,150.770 30.378,150.000 30.800 M218.400 30.353 C 217.630 30.489,220.491 30.600,224.758 30.600 C 229.025 30.600,231.815 30.475,230.958 30.323 C 229.071 29.988,220.349 30.008,218.400 30.353 M182.200 31.200 C 182.336 31.420,182.613 31.600,182.817 31.600 C 184.241 31.600,189.625 35.608,193.429 39.500 C 196.676 42.822,196.655 42.815,198.225 41.166 C 201.693 37.523,209.267 33.082,214.161 31.821 C 216.595 31.193,217.932 30.526,215.799 31.003 C 209.768 32.351,202.566 36.274,198.619 40.362 C 196.604 42.449,196.757 42.483,193.803 39.292 C 190.202 35.403,180.703 28.778,182.200 31.200 M233.200 31.200 C 233.530 31.413,234.250 31.573,234.800 31.554 L 235.800 31.520 234.800 31.200 C 233.258 30.706,232.436 30.706,233.200 31.200 M146.490 32.587 C 139.811 36.406,133.639 43.716,130.607 51.400 L 129.344 54.600 123.847 54.858 C 120.824 55.000,118.256 55.211,118.140 55.326 C 117.701 55.765,129.013 55.093,129.473 54.653 C 129.733 54.404,130.408 52.964,130.973 51.452 C 133.590 44.450,140.063 36.770,146.500 33.028 C 147.545 32.421,148.400 31.851,148.400 31.762 C 148.400 31.509,148.305 31.549,146.490 32.587 M300.262 48.000 C 300.398 48.770,300.662 49.670,300.848 50.000 C 301.052 50.361,301.088 50.043,300.938 49.200 C 300.802 48.430,300.538 47.530,300.352 47.200 C 300.148 46.839,300.112 47.157,300.262 48.000 M301.474 53.800 C 301.598 55.340,301.766 56.675,301.849 56.767 C 302.127 57.074,301.958 54.217,301.602 52.600 C 301.331 51.370,301.302 51.648,301.474 53.800 M115.800 56.000 C 114.693 56.282,114.677 56.309,115.600 56.347 C 116.150 56.369,116.870 56.213,117.200 56.000 C 117.881 55.560,117.529 55.560,115.800 56.000 M112.317 57.001 C 107.517 58.765,102.490 61.970,98.776 65.633 C 97.450 66.940,93.601 71.622,93.619 71.905 C 93.629 72.067,94.109 71.570,94.685 70.800 C 96.483 68.395,103.428 61.838,105.051 61.011 C 105.903 60.578,107.230 59.839,108.001 59.369 C 108.771 58.900,110.526 58.105,111.901 57.604 C 113.275 57.103,114.400 56.627,114.400 56.546 C 114.400 56.311,113.897 56.421,112.317 57.001 M301.440 63.542 C 301.281 64.940,301.237 66.170,301.342 66.276 C 301.608 66.541,302.127 62.179,301.907 61.528 C 301.810 61.238,301.599 62.144,301.440 63.542 M300.643 67.833 C 299.987 69.541,300.419 70.646,302.574 72.774 C 303.770 73.955,305.435 75.875,306.274 77.041 C 308.166 79.668,308.625 79.893,312.600 80.137 C 314.968 80.282,315.384 80.244,314.200 79.990 C 313.320 79.801,311.753 79.636,310.717 79.623 C 308.873 79.600,308.788 79.542,306.590 76.788 C 305.356 75.241,303.530 73.135,302.531 72.108 C 300.882 70.411,300.735 70.102,300.920 68.720 C 301.137 67.105,301.040 66.797,300.643 67.833 M92.286 74.100 C 90.981 76.342,89.440 79.973,89.688 80.221 C 89.796 80.329,90.204 79.559,90.593 78.509 C 90.983 77.459,91.833 75.655,92.481 74.500 C 93.129 73.345,93.573 72.400,93.467 72.400 C 93.362 72.400,92.831 73.165,92.286 74.100 M316.800 80.800 C 317.130 81.013,317.760 81.178,318.200 81.166 L 319.000 81.144 318.200 80.800 C 317.004 80.286,316.005 80.286,316.800 80.800 M70.100 81.094 C 71.145 81.176,72.855 81.176,73.900 81.094 C 74.945 81.012,74.090 80.944,72.000 80.944 C 69.910 80.944,69.055 81.012,70.100 81.094 M88.974 81.900 C 88.500 84.064,88.455 84.110,87.094 83.849 C 86.173 83.673,85.973 83.714,86.400 83.994 C 87.362 84.625,88.728 84.466,88.936 83.700 C 89.407 81.963,89.599 80.800,89.415 80.800 C 89.305 80.800,89.107 81.295,88.974 81.900 M63.800 81.791 C 61.118 82.480,62.376 82.506,65.400 81.824 C 66.720 81.526,67.350 81.281,66.800 81.279 C 66.250 81.278,64.900 81.508,63.800 81.791 M78.600 81.824 C 79.920 82.121,81.270 82.352,81.600 82.335 C 82.538 82.288,78.322 81.276,77.200 81.279 C 76.650 81.281,77.280 81.526,78.600 81.824 M320.400 81.695 C 320.950 81.937,321.991 82.398,322.714 82.720 C 323.437 83.042,324.125 83.209,324.242 83.091 C 324.359 82.974,323.446 82.501,322.213 82.039 C 319.867 81.162,318.676 80.935,320.400 81.695 M57.682 83.579 C 53.025 85.416,49.289 87.913,45.380 91.800 C 42.185 94.978,37.630 100.963,38.071 101.404 C 38.160 101.493,39.208 100.088,40.400 98.283 C 45.028 91.272,53.736 84.513,59.668 83.326 C 60.300 83.200,60.914 82.940,61.032 82.748 C 61.368 82.205,60.819 82.341,57.682 83.579 M82.800 82.800 C 83.130 83.013,83.670 83.188,84.000 83.188 C 84.533 83.188,84.533 83.145,84.000 82.800 C 83.670 82.587,83.130 82.412,82.800 82.412 C 82.267 82.412,82.267 82.455,82.800 82.800 M325.000 83.508 C 325.220 83.724,326.288 84.388,327.373 84.984 C 332.535 87.815,338.019 93.274,341.191 98.739 C 342.296 100.643,343.200 102.030,343.200 101.823 C 343.202 99.349,335.567 90.153,330.451 86.466 C 328.592 85.127,324.251 82.771,325.000 83.508 M36.875 103.819 C 36.394 104.811,36.010 105.842,36.023 106.111 C 36.036 106.380,36.488 105.627,37.028 104.438 C 38.222 101.807,38.098 101.303,36.875 103.819 M343.235 102.400 C 343.218 102.510,343.665 103.860,344.229 105.400 C 344.794 106.940,345.156 107.605,345.033 106.878 C 344.834 105.693,343.314 101.907,343.235 102.400 M35.233 108.633 C 34.975 109.659,34.839 110.572,34.931 110.664 C 35.022 110.756,35.309 109.992,35.567 108.967 C 35.825 107.941,35.961 107.028,35.869 106.936 C 35.778 106.844,35.491 107.608,35.233 108.633 M345.675 110.800 C 345.665 111.570,345.811 112.560,346.000 113.000 C 346.457 114.064,346.457 112.397,346.000 110.600 L 345.695 109.400 345.675 110.800 M34.218 113.018 C 34.065 114.039,34.030 114.963,34.140 115.073 C 34.250 115.183,34.465 114.439,34.618 113.418 C 34.771 112.398,34.806 111.473,34.696 111.363 C 34.586 111.253,34.371 111.998,34.218 113.018 M346.520 117.600 C 346.520 118.810,346.595 119.305,346.687 118.700 C 346.778 118.095,346.778 117.105,346.687 116.500 C 346.595 115.895,346.520 116.390,346.520 117.600 M345.889 122.400 C 345.736 122.950,345.627 123.940,345.646 124.600 C 345.677 125.692,345.714 125.658,346.052 124.211 C 346.475 122.406,346.331 120.811,345.889 122.400 M34.087 123.600 C 34.091 124.150,34.232 125.140,34.400 125.800 L 34.705 127.000 34.713 125.800 C 34.717 125.140,34.576 124.150,34.400 123.600 L 34.080 122.600 34.087 123.600 M344.505 128.905 C 344.038 130.491,343.722 131.856,343.804 131.937 C 343.885 132.018,344.343 130.796,344.821 129.221 C 345.299 127.646,345.615 126.282,345.523 126.189 C 345.430 126.097,344.972 127.319,344.505 128.905 M35.034 128.400 C 35.447 130.546,36.034 131.707,35.742 129.800 C 35.608 128.920,35.333 127.930,35.131 127.600 C 34.893 127.209,34.859 127.487,35.034 128.400 M342.300 134.500 C 341.701 135.624,341.286 136.619,341.378 136.712 C 341.471 136.804,342.020 135.944,342.600 134.800 C 343.972 132.093,343.718 131.840,342.300 134.500 M36.828 133.800 C 36.828 134.020,37.086 134.650,37.400 135.200 C 37.714 135.750,37.972 136.020,37.972 135.800 C 37.972 135.580,37.714 134.950,37.400 134.400 C 37.086 133.850,36.828 133.580,36.828 133.800 M340.418 137.967 C 340.172 138.426,338.897 140.083,337.585 141.650 C 336.273 143.216,335.200 144.682,335.200 144.908 C 335.200 145.531,336.893 150.041,337.063 149.871 C 337.145 149.789,336.817 148.626,336.335 147.287 L 335.459 144.851 337.239 142.726 C 339.900 139.548,341.306 137.572,341.073 137.339 C 340.958 137.225,340.664 137.507,340.418 137.967 M39.200 138.606 C 39.200 139.892,48.522 150.012,49.138 149.395 C 49.256 149.278,48.933 148.888,48.422 148.530 C 46.637 147.280,43.668 144.179,41.593 141.400 C 39.114 138.077,39.200 138.178,39.200 138.606 M49.603 149.913 C 49.604 150.071,50.729 150.840,52.103 151.623 C 54.566 153.026,54.600 153.068,54.564 154.743 C 54.542 155.775,54.657 156.236,54.858 155.920 C 55.917 154.250,55.271 153.039,52.400 151.311 C 50.860 150.385,49.601 149.756,49.603 149.913 M337.236 151.000 C 337.216 151.220,337.467 152.660,337.793 154.200 C 338.567 157.853,338.559 163.664,337.775 167.459 C 337.040 171.020,337.285 171.930,338.065 168.532 C 338.812 165.276,338.700 155.236,337.888 152.600 C 337.549 151.500,337.255 150.780,337.236 151.000 M54.064 157.450 C 54.029 157.918,53.905 158.908,53.789 159.650 C 53.596 160.886,53.615 160.917,54.008 160.014 C 54.245 159.472,54.368 158.482,54.283 157.814 C 54.191 157.097,54.102 156.948,54.064 157.450 M151.188 170.234 C 147.029 174.467,142.515 177.438,137.349 179.343 C 135.837 179.900,134.821 180.366,135.091 180.378 C 138.135 180.514,148.163 174.416,152.144 170.009 C 154.029 167.923,154.056 167.930,156.117 171.100 C 159.609 176.468,164.907 181.330,170.316 184.129 C 174.167 186.122,174.541 185.991,170.800 183.960 C 164.268 180.412,159.079 175.487,155.510 169.445 C 154.137 167.122,154.270 167.098,151.188 170.234 M53.687 169.200 C 53.691 169.750,53.832 170.740,54.000 171.400 L 54.305 172.600 54.313 171.400 C 54.317 170.740,54.176 169.750,54.000 169.200 L 53.680 168.200 53.687 169.200 M336.382 173.073 C 332.543 184.849,321.481 194.957,309.600 197.546 C 308.390 197.809,306.680 198.181,305.800 198.372 C 304.601 198.633,304.463 198.730,305.249 198.760 C 313.624 199.081,327.378 190.245,333.206 180.800 C 334.801 178.215,337.410 172.077,337.062 171.729 C 336.962 171.628,336.656 172.233,336.382 173.073 M54.658 174.200 C 54.792 175.080,55.067 176.070,55.269 176.400 C 55.507 176.791,55.541 176.513,55.366 175.600 C 54.953 173.454,54.366 172.293,54.658 174.200 M55.627 177.450 C 55.531 179.051,59.280 185.575,62.671 189.707 C 66.340 194.176,76.080 200.855,78.829 200.786 C 79.143 200.778,78.230 200.262,76.800 199.639 C 67.248 195.479,60.913 188.857,56.098 178.000 C 55.854 177.450,55.642 177.203,55.627 177.450 M132.722 180.611 C 132.606 180.728,131.721 180.978,130.755 181.168 C 129.394 181.435,129.269 181.515,130.200 181.525 C 131.622 181.541,135.031 180.506,133.767 180.442 C 133.308 180.419,132.838 180.495,132.722 180.611 M125.016 182.696 C 124.457 183.299,124.000 183.952,124.000 184.147 C 124.000 186.004,112.882 197.200,111.038 197.200 C 110.899 197.200,110.112 197.624,109.291 198.142 C 108.470 198.661,106.674 199.495,105.299 199.996 C 102.699 200.944,102.000 201.415,103.900 200.940 C 110.150 199.376,118.829 192.616,123.509 185.667 C 125.654 182.481,125.971 182.180,127.422 181.957 L 129.000 181.714 127.516 181.657 C 126.369 181.613,125.802 181.849,125.016 182.696 M206.600 183.442 C 205.280 184.185,203.161 185.179,201.890 185.653 C 200.620 186.127,199.651 186.585,199.738 186.671 C 200.133 187.067,207.388 183.850,208.580 182.751 C 209.342 182.047,210.226 182.454,211.400 184.048 C 215.132 189.116,225.942 196.954,228.950 196.773 C 229.197 196.758,228.950 196.546,228.400 196.302 C 220.746 192.907,216.410 189.643,211.648 183.690 C 210.051 181.694,209.738 181.678,206.600 183.442 M267.649 188.413 C 262.878 192.936,256.775 196.244,250.800 197.546 C 249.590 197.809,247.880 198.181,247.000 198.372 C 245.899 198.611,245.712 198.731,246.400 198.757 C 251.910 198.963,261.999 194.222,267.862 188.673 L 271.208 185.506 274.234 188.381 C 277.199 191.197,282.654 195.080,283.066 194.667 C 283.181 194.553,282.673 194.151,281.937 193.775 C 280.211 192.892,274.600 188.501,272.822 186.641 C 271.103 184.845,271.590 184.678,267.649 188.413 M174.000 185.741 C 174.000 185.979,178.977 187.600,179.709 187.600 C 180.594 187.600,179.642 187.167,177.561 186.622 C 176.372 186.312,175.085 185.935,174.700 185.786 C 174.315 185.637,174.000 185.616,174.000 185.741 M197.000 187.200 C 195.981 187.638,197.032 187.638,198.400 187.200 C 199.204 186.943,199.243 186.877,198.600 186.868 C 198.160 186.862,197.440 187.011,197.000 187.200 M182.065 188.137 C 183.019 188.323,185.780 188.474,188.200 188.474 C 190.620 188.474,193.381 188.323,194.335 188.137 C 195.520 187.907,193.574 187.800,188.200 187.800 C 182.826 187.800,180.880 187.907,182.065 188.137 M283.600 194.981 C 283.600 195.241,287.214 196.804,287.751 196.777 C 287.998 196.764,287.232 196.314,286.049 195.777 C 283.787 194.750,283.600 194.689,283.600 194.981 M229.657 196.974 C 230.070 197.414,236.088 198.794,237.400 198.751 C 238.246 198.722,238.011 198.605,236.600 198.354 C 234.833 198.038,232.767 197.571,230.200 196.908 C 229.760 196.794,229.516 196.824,229.657 196.974 M290.600 197.635 C 291.920 198.055,293.990 198.482,295.200 198.585 L 297.400 198.772 295.400 198.367 C 294.300 198.144,292.398 197.700,291.174 197.381 C 288.064 196.570,287.722 196.721,290.600 197.635 M240.900 199.087 C 241.505 199.178,242.495 199.178,243.100 199.087 C 243.705 198.995,243.210 198.920,242.000 198.920 C 240.790 198.920,240.295 198.995,240.900 199.087 M299.700 199.087 C 300.305 199.178,301.295 199.178,301.900 199.087 C 302.505 198.995,302.010 198.920,300.800 198.920 C 299.590 198.920,299.095 198.995,299.700 199.087 M79.641 200.975 C 81.280 202.613,94.760 203.327,99.600 202.031 C 102.750 201.188,101.868 201.172,97.800 201.998 C 95.043 202.559,84.908 202.342,83.000 201.681 C 81.326 201.102,79.354 200.687,79.641 200.975 " stroke="none" fill="#ad9d9c" fill-rule="evenodd"></path></g></svg>